<?xml version="1.0" encoding="UTF-8" standalone="no"?>
<!DOCTYPE svg PUBLIC "-//W3C//DTD SVG 1.1//EN"
 "http://www.w3.org/Graphics/SVG/1.1/DTD/svg11.dtd">
<!-- Generated by graphviz version 2.40.1 (20161225.0304)
 -->
<!-- Title: G Pages: 1 -->
<svg width="210pt" height="404pt"
 viewBox="0.00 0.00 210.00 404.00" xmlns="http://www.w3.org/2000/svg" xmlns:xlink="http://www.w3.org/1999/xlink">
<g id="graph0" class="graph" transform="scale(1 1) rotate(0) translate(4 400)">
<title>G</title>
<polygon fill="#ffffff" stroke="transparent" points="-4,4 -4,-400 206,-400 206,4 -4,4"/>
<!-- 0 -->
<g id="node1" class="node">
<title>0</title>
<ellipse fill="#a0a0a0" stroke="#a0a0a0" cx="82" cy="-306" rx="27" ry="18"/>
<text text-anchor="middle" x="82" y="-301.8" font-family="Times,serif" font-size="14.00" fill="#000000">0</text>
</g>
<!-- 1 -->
<g id="node2" class="node">
<title>1</title>
<ellipse fill="#a0a0a0" stroke="#a0a0a0" cx="154" cy="-234" rx="27" ry="18"/>
<text text-anchor="middle" x="154" y="-229.8" font-family="Times,serif" font-size="14.00" fill="#000000">5</text>
</g>
<!-- 0&#45;&gt;1 -->
<g id="edge1" class="edge">
<title>0&#45;&gt;1</title>
<path fill="none" stroke="#000000" d="M97.2693,-290.7307C107.197,-280.803 120.3153,-267.6847 131.4363,-256.5637"/>
<polygon fill="#000000" stroke="#000000" points="134.1564,-258.7933 138.7527,-249.2473 129.2067,-253.8436 134.1564,-258.7933"/>
</g>
<!-- 2 -->
<g id="node3" class="node">
<title>2</title>
<ellipse fill="#a0a0a0" stroke="#a0a0a0" cx="82" cy="-234" rx="27" ry="18"/>
<text text-anchor="middle" x="82" y="-229.8" font-family="Times,serif" font-size="14.00" fill="#000000">2</text>
</g>
<!-- 0&#45;&gt;2 -->
<g id="edge2" class="edge">
<title>0&#45;&gt;2</title>
<path fill="none" stroke="#000000" d="M82,-287.8314C82,-280.131 82,-270.9743 82,-262.4166"/>
<polygon fill="#000000" stroke="#000000" points="85.5001,-262.4132 82,-252.4133 78.5001,-262.4133 85.5001,-262.4132"/>
</g>
<!-- 3 -->
<g id="node4" class="node">
<title>3</title>
<ellipse fill="#a0a0a0" stroke="#a0a0a0" cx="27" cy="-90" rx="27" ry="18"/>
<text text-anchor="middle" x="27" y="-85.8" font-family="Times,serif" font-size="14.00" fill="#000000">6</text>
</g>
<!-- 0&#45;&gt;3 -->
<g id="edge3" class="edge">
<title>0&#45;&gt;3</title>
<path fill="none" stroke="#000000" d="M68.4564,-290.0904C60.544,-279.8797 51.1331,-265.959 46,-252 29.5801,-207.3472 26.5289,-151.5299 26.3714,-118.4343"/>
<polygon fill="#000000" stroke="#000000" points="29.8725,-118.1449 26.4137,-108.1306 22.8725,-118.1161 29.8725,-118.1449"/>
</g>
<!-- 4 -->
<g id="node5" class="node">
<title>4</title>
<ellipse fill="#a0a0a0" stroke="#a0a0a0" cx="82" cy="-162" rx="27" ry="18"/>
<text text-anchor="middle" x="82" y="-157.8" font-family="Times,serif" font-size="14.00" fill="#000000">1</text>
</g>
<!-- 1&#45;&gt;4 -->
<g id="edge4" class="edge">
<title>1&#45;&gt;4</title>
<path fill="none" stroke="#000000" d="M138.7307,-218.7307C128.803,-208.803 115.6847,-195.6847 104.5637,-184.5637"/>
<polygon fill="#000000" stroke="#000000" points="106.7933,-181.8436 97.2473,-177.2473 101.8436,-186.7933 106.7933,-181.8436"/>
</g>
<!-- 2&#45;&gt;4 -->
<g id="edge5" class="edge">
<title>2&#45;&gt;4</title>
<path fill="none" stroke="#000000" d="M82,-215.8314C82,-208.131 82,-198.9743 82,-190.4166"/>
<polygon fill="#000000" stroke="#000000" points="85.5001,-190.4132 82,-180.4133 78.5001,-190.4133 85.5001,-190.4132"/>
</g>
<!-- 5 -->
<g id="node6" class="node">
<title>5</title>
<ellipse fill="#a0a0a0" stroke="#a0a0a0" cx="82" cy="-18" rx="27" ry="18"/>
<text text-anchor="middle" x="82" y="-13.8" font-family="Times,serif" font-size="14.00" fill="#000000">8</text>
</g>
<!-- 3&#45;&gt;5 -->
<g id="edge6" class="edge">
<title>3&#45;&gt;5</title>
<path fill="none" stroke="#000000" d="M39.4804,-73.6621C46.5124,-64.4564 55.4347,-52.7764 63.2883,-42.4953"/>
<polygon fill="#000000" stroke="#000000" points="66.28,-44.3446 69.569,-34.2733 60.7172,-40.0953 66.28,-44.3446"/>
</g>
<!-- 4&#45;&gt;3 -->
<g id="edge7" class="edge">
<title>4&#45;&gt;3</title>
<path fill="none" stroke="#000000" d="M69.5196,-145.6621C62.4876,-136.4564 53.5653,-124.7764 45.7117,-114.4953"/>
<polygon fill="#000000" stroke="#000000" points="48.2828,-112.0953 39.431,-106.2733 42.72,-116.3446 48.2828,-112.0953"/>
</g>
<!-- 4&#45;&gt;5 -->
<g id="edge8" class="edge">
<title>4&#45;&gt;5</title>
<path fill="none" stroke="#000000" d="M82,-143.7623C82,-119.201 82,-75.2474 82,-46.3541"/>
<polygon fill="#000000" stroke="#000000" points="85.5001,-46.0896 82,-36.0896 78.5001,-46.0897 85.5001,-46.0896"/>
</g>
<!-- 6 -->
<g id="node7" class="node">
<title>6</title>
<ellipse fill="#a0a0a0" stroke="#a0a0a0" cx="137" cy="-90" rx="27" ry="18"/>
<text text-anchor="middle" x="137" y="-85.8" font-family="Times,serif" font-size="14.00" fill="#000000">7</text>
</g>
<!-- 4&#45;&gt;6 -->
<g id="edge9" class="edge">
<title>4&#45;&gt;6</title>
<path fill="none" stroke="#000000" d="M94.4804,-145.6621C101.5124,-136.4564 110.4347,-124.7764 118.2883,-114.4953"/>
<polygon fill="#000000" stroke="#000000" points="121.28,-116.3446 124.569,-106.2733 115.7172,-112.0953 121.28,-116.3446"/>
</g>
<!-- 6&#45;&gt;5 -->
<g id="edge10" class="edge">
<title>6&#45;&gt;5</title>
<path fill="none" stroke="#000000" d="M124.5196,-73.6621C117.4876,-64.4564 108.5653,-52.7764 100.7117,-42.4953"/>
<polygon fill="#000000" stroke="#000000" points="103.2828,-40.0953 94.431,-34.2733 97.72,-44.3446 103.2828,-40.0953"/>
</g>
<!-- 7 -->
<g id="node8" class="node">
<title>7</title>
<ellipse fill="#a0a0a0" stroke="#a0a0a0" cx="175" cy="-378" rx="27" ry="18"/>
<text text-anchor="middle" x="175" y="-373.8" font-family="Times,serif" font-size="14.00" fill="#000000">3</text>
</g>
<!-- 7&#45;&gt;1 -->
<g id="edge11" class="edge">
<title>7&#45;&gt;1</title>
<path fill="none" stroke="#000000" d="M172.3828,-360.0535C168.7988,-335.4774 162.3272,-291.1008 158.0975,-262.0974"/>
<polygon fill="#000000" stroke="#000000" points="161.5567,-261.5629 156.6502,-252.1727 154.63,-262.5731 161.5567,-261.5629"/>
</g>
<!-- 7&#45;&gt;2 -->
<g id="edge12" class="edge">
<title>7&#45;&gt;2</title>
<path fill="none" stroke="#000000" d="M164.6103,-361.3379C153.2725,-343.2161 134.5283,-313.4331 118,-288 111.8296,-278.5052 104.9557,-268.1429 98.8816,-259.0576"/>
<polygon fill="#000000" stroke="#000000" points="101.6052,-256.8349 93.1298,-250.4774 95.7908,-260.7326 101.6052,-256.8349"/>
</g>
<!-- 7&#45;&gt;6 -->
<g id="edge13" class="edge">
<title>7&#45;&gt;6</title>
<path fill="none" stroke="#000000" d="M180.0818,-359.8381C187.7637,-329.682 200.3902,-267.4986 190,-216 182.6662,-179.6502 164.5392,-140.7316 151.5273,-115.9228"/>
<polygon fill="#000000" stroke="#000000" points="154.4618,-113.9888 146.6532,-106.8281 148.292,-117.2954 154.4618,-113.9888"/>
</g>
<!-- 8 -->
<g id="node9" class="node">
<title>8</title>
<ellipse fill="#a0a0a0" stroke="#a0a0a0" cx="55" cy="-378" rx="27" ry="18"/>
<text text-anchor="middle" x="55" y="-373.8" font-family="Times,serif" font-size="14.00" fill="#000000">4</text>
</g>
<!-- 8&#45;&gt;0 -->
<g id="edge14" class="edge">
<title>8&#45;&gt;0</title>
<path fill="none" stroke="#000000" d="M61.6742,-360.2022C64.7476,-352.0064 68.4616,-342.1024 71.8695,-333.0145"/>
<polygon fill="#000000" stroke="#000000" points="75.1685,-334.1853 75.4026,-323.593 68.6142,-331.7274 75.1685,-334.1853"/>
</g>
<!-- 8&#45;&gt;4 -->
<g id="edge15" class="edge">
<title>8&#45;&gt;4</title>
<path fill="none" stroke="#000000" d="M50.0643,-360.0251C42.5738,-329.6174 30.7357,-266.4147 46,-216 49.2661,-205.2127 55.4764,-194.6108 61.8313,-185.6963"/>
<polygon fill="#000000" stroke="#000000" points="64.6285,-187.8001 67.8771,-177.7156 59.0487,-183.5732 64.6285,-187.8001"/>
</g>
</g>
</svg>
