<?xml version="1.0" encoding="UTF-8" standalone="no"?>
<!DOCTYPE svg PUBLIC "-//W3C//DTD SVG 1.1//EN"
 "http://www.w3.org/Graphics/SVG/1.1/DTD/svg11.dtd">
<!-- Generated by graphviz version 2.40.1 (20161225.0304)
 -->
<!-- Title: G Pages: 1 -->
<svg width="203pt" height="225pt"
 viewBox="0.00 0.00 202.99 225.23" xmlns="http://www.w3.org/2000/svg" xmlns:xlink="http://www.w3.org/1999/xlink">
<g id="graph0" class="graph" transform="scale(1 1) rotate(0) translate(4 221.2266)">
<title>G</title>
<polygon fill="#ffffff" stroke="transparent" points="-4,4 -4,-221.2266 198.9948,-221.2266 198.9948,4 -4,4"/>
<!-- 0 -->
<g id="node1" class="node">
<title>0</title>
<ellipse fill="#a0a0a0" stroke="#a0a0a0" cx="167.9948" cy="-139.5455" rx="27" ry="18"/>
<text text-anchor="middle" x="167.9948" y="-135.3455" font-family="Times,serif" font-size="14.00" fill="#000000">0</text>
</g>
<!-- 1 -->
<g id="node2" class="node">
<title>1</title>
<ellipse fill="#a0a0a0" stroke="#a0a0a0" cx="159.8159" cy="-67.7728" rx="27" ry="18"/>
<text text-anchor="middle" x="159.8159" y="-63.5728" font-family="Times,serif" font-size="14.00" fill="#000000">5</text>
</g>
<!-- 0&#45;&gt;1 -->
<g id="edge1" class="edge">
<title>0&#45;&gt;1</title>
<path fill="none" stroke="#000000" d="M165.9309,-121.4342C165.0562,-113.7582 164.016,-104.6305 163.0439,-96.0998"/>
<polygon fill="#000000" stroke="#000000" points="166.5174,-95.6674 161.9076,-86.128 159.5624,-96.46 166.5174,-95.6674"/>
</g>
<!-- 2 -->
<g id="node3" class="node">
<title>2</title>
<ellipse fill="#a0a0a0" stroke="#a0a0a0" cx="123.9395" cy="-71.6366" rx="27" ry="18"/>
<text text-anchor="middle" x="123.9395" y="-67.4366" font-family="Times,serif" font-size="14.00" fill="#000000">2</text>
</g>
<!-- 0&#45;&gt;2 -->
<g id="edge2" class="edge">
<title>0&#45;&gt;2</title>
<path fill="none" stroke="#000000" d="M157.1047,-122.759C152.0365,-114.9466 145.9007,-105.4887 140.2918,-96.8429"/>
<polygon fill="#000000" stroke="#000000" points="143.083,-94.7144 134.7043,-88.23 137.2106,-98.5241 143.083,-94.7144"/>
</g>
<!-- 3 -->
<g id="node4" class="node">
<title>3</title>
<ellipse fill="#a0a0a0" stroke="#a0a0a0" cx="88.375" cy="-195.7824" rx="27" ry="18"/>
<text text-anchor="middle" x="88.375" y="-191.5824" font-family="Times,serif" font-size="14.00" fill="#000000">6</text>
</g>
<!-- 0&#45;&gt;3 -->
<g id="edge3" class="edge">
<title>0&#45;&gt;3</title>
<path fill="none" stroke="#000000" d="M149.126,-152.8729C139.1112,-159.9465 126.6246,-168.766 115.581,-176.5663"/>
<polygon fill="#000000" stroke="#000000" points="113.2571,-173.9227 107.1083,-182.5507 117.2956,-179.6403 113.2571,-173.9227"/>
</g>
<!-- 4 -->
<g id="node5" class="node">
<title>4</title>
<ellipse fill="#a0a0a0" stroke="#a0a0a0" cx="95.0297" cy="-130.8861" rx="27" ry="18"/>
<text text-anchor="middle" x="95.0297" y="-126.6861" font-family="Times,serif" font-size="14.00" fill="#000000">1</text>
</g>
<!-- 1&#45;&gt;4 -->
<g id="edge4" class="edge">
<title>1&#45;&gt;4</title>
<path fill="none" stroke="#000000" d="M144.4625,-82.7298C136.5906,-90.3984 126.8419,-99.8953 118.0878,-108.4234"/>
<polygon fill="#000000" stroke="#000000" points="115.4436,-106.113 110.723,-115.598 120.3282,-111.1271 115.4436,-106.113"/>
</g>
<!-- 2&#45;&gt;4 -->
<g id="edge5" class="edge">
<title>2&#45;&gt;4</title>
<path fill="none" stroke="#000000" d="M115.5776,-88.774C113.2012,-93.6442 110.556,-99.0656 107.9756,-104.354"/>
<polygon fill="#000000" stroke="#000000" points="104.7127,-103.0598 103.473,-113.5819 111.0037,-106.1295 104.7127,-103.0598"/>
</g>
<!-- 5 -->
<g id="node6" class="node">
<title>5</title>
<ellipse fill="#a0a0a0" stroke="#a0a0a0" cx="27" cy="-153.076" rx="27" ry="18"/>
<text text-anchor="middle" x="27" y="-148.876" font-family="Times,serif" font-size="14.00" fill="#000000">8</text>
</g>
<!-- 3&#45;&gt;5 -->
<g id="edge6" class="edge">
<title>3&#45;&gt;5</title>
<path fill="none" stroke="#000000" d="M69.627,-182.737C64.8392,-179.4056 59.5922,-175.7545 54.4663,-172.1878"/>
<polygon fill="#000000" stroke="#000000" points="56.2642,-169.1749 46.0568,-166.3362 52.2661,-174.9208 56.2642,-169.1749"/>
</g>
<!-- 4&#45;&gt;3 -->
<g id="edge7" class="edge">
<title>4&#45;&gt;3</title>
<path fill="none" stroke="#000000" d="M93.176,-148.9633C92.5847,-154.7296 91.9156,-161.2547 91.2687,-167.5629"/>
<polygon fill="#000000" stroke="#000000" points="87.7572,-167.4972 90.2187,-177.8021 94.7207,-168.2113 87.7572,-167.4972"/>
</g>
<!-- 4&#45;&gt;5 -->
<g id="edge8" class="edge">
<title>4&#45;&gt;5</title>
<path fill="none" stroke="#000000" d="M70.4694,-138.8971C67.3486,-139.9151 64.1124,-140.9707 60.8778,-142.0257"/>
<polygon fill="#000000" stroke="#000000" points="59.7178,-138.7225 51.2961,-145.151 61.8886,-145.3774 59.7178,-138.7225"/>
</g>
<!-- 6 -->
<g id="node7" class="node">
<title>6</title>
<ellipse fill="#a0a0a0" stroke="#a0a0a0" cx="29.0417" cy="-79.7926" rx="27" ry="18"/>
<text text-anchor="middle" x="29.0417" y="-75.5926" font-family="Times,serif" font-size="14.00" fill="#000000">7</text>
</g>
<!-- 4&#45;&gt;6 -->
<g id="edge9" class="edge">
<title>4&#45;&gt;6</title>
<path fill="none" stroke="#000000" d="M77.3461,-117.1939C70.3932,-111.8104 62.2747,-105.5244 54.6997,-99.6592"/>
<polygon fill="#000000" stroke="#000000" points="56.8237,-96.8773 46.7741,-93.5225 52.5382,-102.4121 56.8237,-96.8773"/>
</g>
<!-- 6&#45;&gt;5 -->
<g id="edge10" class="edge">
<title>6&#45;&gt;5</title>
<path fill="none" stroke="#000000" d="M28.537,-97.9076C28.3112,-106.0111 28.0397,-115.7553 27.7882,-124.7848"/>
<polygon fill="#000000" stroke="#000000" points="24.2859,-124.8218 27.506,-134.9154 31.2832,-125.0168 24.2859,-124.8218"/>
</g>
<!-- 7 -->
<g id="node8" class="node">
<title>7</title>
<ellipse fill="#a0a0a0" stroke="#a0a0a0" cx="86.5941" cy="-18" rx="27" ry="18"/>
<text text-anchor="middle" x="86.5941" y="-13.8" font-family="Times,serif" font-size="14.00" fill="#000000">3</text>
</g>
<!-- 7&#45;&gt;1 -->
<g id="edge11" class="edge">
<title>7&#45;&gt;1</title>
<path fill="none" stroke="#000000" d="M105.8322,-31.0772C113.9041,-36.5641 123.4426,-43.048 132.239,-49.0273"/>
<polygon fill="#000000" stroke="#000000" points="130.4684,-52.0558 140.7062,-54.783 134.4036,-46.2666 130.4684,-52.0558"/>
</g>
<!-- 7&#45;&gt;2 -->
<g id="edge12" class="edge">
<title>7&#45;&gt;2</title>
<path fill="none" stroke="#000000" d="M98.0018,-34.3842C100.7019,-38.2621 103.6421,-42.4849 106.5411,-46.6485"/>
<polygon fill="#000000" stroke="#000000" points="103.7574,-48.7758 112.3438,-54.9826 109.5021,-44.7759 103.7574,-48.7758"/>
</g>
<!-- 7&#45;&gt;6 -->
<g id="edge13" class="edge">
<title>7&#45;&gt;6</title>
<path fill="none" stroke="#000000" d="M72.0712,-33.5929C65.4778,-40.672 57.5489,-49.1851 50.3034,-56.9644"/>
<polygon fill="#000000" stroke="#000000" points="47.6149,-54.7156 43.3605,-64.4188 52.7373,-59.4865 47.6149,-54.7156"/>
</g>
<!-- 8 -->
<g id="node9" class="node">
<title>8</title>
<ellipse fill="#a0a0a0" stroke="#a0a0a0" cx="157.9784" cy="-199.2266" rx="27" ry="18"/>
<text text-anchor="middle" x="157.9784" y="-195.0266" font-family="Times,serif" font-size="14.00" fill="#000000">4</text>
</g>
<!-- 8&#45;&gt;0 -->
<g id="edge14" class="edge">
<title>8&#45;&gt;0</title>
<path fill="none" stroke="#000000" d="M160.9837,-181.3203C161.7166,-176.9534 162.518,-172.1782 163.3087,-167.467"/>
<polygon fill="#000000" stroke="#000000" points="166.7882,-167.8806 164.9917,-157.4392 159.8847,-166.7219 166.7882,-167.8806"/>
</g>
<!-- 8&#45;&gt;4 -->
<g id="edge15" class="edge">
<title>8&#45;&gt;4</title>
<path fill="none" stroke="#000000" d="M143.6944,-183.7191C135.5655,-174.894 125.2299,-163.673 116.1764,-153.8441"/>
<polygon fill="#000000" stroke="#000000" points="118.6066,-151.3163 109.2572,-146.3322 113.4579,-156.0588 118.6066,-151.3163"/>
</g>
</g>
</svg>
