<?xml version="1.0" encoding="UTF-8" standalone="no"?>
<!DOCTYPE svg PUBLIC "-//W3C//DTD SVG 1.1//EN"
 "http://www.w3.org/Graphics/SVG/1.1/DTD/svg11.dtd">
<!-- Generated by graphviz version 2.40.1 (20161225.0304)
 -->
<!-- Title: G Pages: 1 -->
<svg width="1778pt" height="1467pt"
 viewBox="0.00 0.00 1777.85 1467.18" xmlns="http://www.w3.org/2000/svg" xmlns:xlink="http://www.w3.org/1999/xlink">
<g id="graph0" class="graph" transform="scale(1 1) rotate(0) translate(4 1463.1755)">
<title>G</title>
<polygon fill="#ffffff" stroke="transparent" points="-4,4 -4,-1463.1755 1773.8495,-1463.1755 1773.8495,4 -4,4"/>
<!-- 0 -->
<g id="node1" class="node">
<title>0</title>
<ellipse fill="none" stroke="#000000" cx="840.5999" cy="-633.2721" rx="27" ry="18"/>
<text text-anchor="middle" x="840.5999" y="-629.0721" font-family="Times,serif" font-size="14.00" fill="#000000">0</text>
</g>
<!-- 1 -->
<g id="node2" class="node">
<title>1</title>
<ellipse fill="none" stroke="#000000" cx="1041.3826" cy="-630.9755" rx="27" ry="18"/>
<text text-anchor="middle" x="1041.3826" y="-626.7755" font-family="Times,serif" font-size="14.00" fill="#000000">1</text>
</g>
<!-- 0&#45;&gt;1 -->
<g id="edge1" class="edge">
<title>0&#45;&gt;1</title>
<path fill="none" stroke="#ff0000" d="M867.6784,-632.9623C905.9991,-632.524 975.6559,-631.7273 1014.0919,-631.2876"/>
<text text-anchor="middle" x="930.0988" y="-636.325" font-family="Times,serif" font-size="14.00" fill="#000000">~23</text>
</g>
<!-- 2 -->
<g id="node3" class="node">
<title>2</title>
<ellipse fill="none" stroke="#000000" cx="943.1117" cy="-563.5114" rx="27" ry="18"/>
<text text-anchor="middle" x="943.1117" y="-559.3114" font-family="Times,serif" font-size="14.00" fill="#000000">2</text>
</g>
<!-- 0&#45;&gt;2 -->
<g id="edge2" class="edge">
<title>0&#45;&gt;2</title>
<path fill="none" stroke="#000000" d="M859.8816,-620.1506C878.2091,-607.6785 905.6176,-589.0267 923.9165,-576.574"/>
<text text-anchor="middle" x="881.1127" y="-602.5623" font-family="Times,serif" font-size="14.00" fill="#000000">~17</text>
</g>
<!-- 3 -->
<g id="node4" class="node">
<title>3</title>
<ellipse fill="none" stroke="#000000" cx="739.9828" cy="-727.7705" rx="27" ry="18"/>
<text text-anchor="middle" x="739.9828" y="-723.5705" font-family="Times,serif" font-size="14.00" fill="#000000">3</text>
</g>
<!-- 0&#45;&gt;3 -->
<g id="edge3" class="edge">
<title>0&#45;&gt;3</title>
<path fill="none" stroke="#ff0000" d="M824.8785,-648.0374C806.0865,-665.6867 774.8154,-695.0561 755.9259,-712.7969"/>
<text text-anchor="middle" x="779.6159" y="-684.6172" font-family="Times,serif" font-size="14.00" fill="#000000">~16</text>
</g>
<!-- 17 -->
<g id="node5" class="node">
<title>17</title>
<ellipse fill="none" stroke="#000000" cx="639.7237" cy="-525.1517" rx="27" ry="18"/>
<text text-anchor="middle" x="639.7237" y="-520.9517" font-family="Times,serif" font-size="14.00" fill="#000000">17</text>
</g>
<!-- 0&#45;&gt;17 -->
<g id="edge4" class="edge">
<title>0&#45;&gt;17</title>
<path fill="none" stroke="#000000" d="M819.4823,-621.9056C780.9024,-601.1402 699.4534,-557.3008 660.8598,-536.528"/>
<text text-anchor="middle" x="729.3848" y="-583.4168" font-family="Times,serif" font-size="14.00" fill="#000000">~25</text>
</g>
<!-- 4 -->
<g id="node6" class="node">
<title>4</title>
<ellipse fill="none" stroke="#000000" cx="1204.1141" cy="-428.2925" rx="27" ry="18"/>
<text text-anchor="middle" x="1204.1141" y="-424.0925" font-family="Times,serif" font-size="14.00" fill="#000000">4</text>
</g>
<!-- 1&#45;&gt;4 -->
<g id="edge5" class="edge">
<title>1&#45;&gt;4</title>
<path fill="none" stroke="#000000" d="M1054.1518,-615.0713C1084.4971,-577.2761 1160.6674,-482.4055 1191.1789,-444.4033"/>
<text text-anchor="middle" x="1111.8791" y="-533.9373" font-family="Times,serif" font-size="14.00" fill="#000000">~30</text>
</g>
<!-- 5 -->
<g id="node7" class="node">
<title>5</title>
<ellipse fill="none" stroke="#000000" cx="1161.1502" cy="-539.8085" rx="27" ry="18"/>
<text text-anchor="middle" x="1161.1502" y="-535.6085" font-family="Times,serif" font-size="14.00" fill="#000000">5</text>
</g>
<!-- 1&#45;&gt;5 -->
<g id="edge6" class="edge">
<title>1&#45;&gt;5</title>
<path fill="none" stroke="#ff0000" d="M1059.313,-617.3269C1081.8916,-600.14 1120.4609,-570.7812 1143.0972,-553.5504"/>
<text text-anchor="middle" x="1090.4188" y="-589.6386" font-family="Times,serif" font-size="14.00" fill="#000000">~17</text>
</g>
<!-- 10 -->
<g id="node8" class="node">
<title>10</title>
<ellipse fill="none" stroke="#000000" cx="1089.5254" cy="-712.9073" rx="27" ry="18"/>
<text text-anchor="middle" x="1089.5254" y="-708.7073" font-family="Times,serif" font-size="14.00" fill="#000000">10</text>
</g>
<!-- 1&#45;&gt;10 -->
<g id="edge7" class="edge">
<title>1&#45;&gt;10</title>
<path fill="none" stroke="#000000" d="M1051.3578,-647.9518C1059.6203,-662.0134 1071.304,-681.8972 1079.5629,-695.9528"/>
<text text-anchor="middle" x="1054.6741" y="-676.1523" font-family="Times,serif" font-size="14.00" fill="#000000">~10</text>
</g>
<!-- 13 -->
<g id="node9" class="node">
<title>13</title>
<ellipse fill="none" stroke="#000000" cx="1103.5987" cy="-467.0773" rx="27" ry="18"/>
<text text-anchor="middle" x="1103.5987" y="-462.8773" font-family="Times,serif" font-size="14.00" fill="#000000">13</text>
</g>
<!-- 1&#45;&gt;13 -->
<g id="edge8" class="edge">
<title>1&#45;&gt;13</title>
<path fill="none" stroke="#000000" d="M1048.0408,-613.4355C1059.9529,-582.0549 1084.7866,-516.6346 1096.7998,-484.988"/>
<text text-anchor="middle" x="1061.634" y="-553.4118" font-family="Times,serif" font-size="14.00" fill="#000000">~25</text>
</g>
<!-- 21 -->
<g id="node10" class="node">
<title>21</title>
<ellipse fill="none" stroke="#000000" cx="1023.0274" cy="-534.3612" rx="27" ry="18"/>
<text text-anchor="middle" x="1023.0274" y="-530.1612" font-family="Times,serif" font-size="14.00" fill="#000000">21</text>
</g>
<!-- 1&#45;&gt;21 -->
<g id="edge9" class="edge">
<title>1&#45;&gt;21</title>
<path fill="none" stroke="#000000" d="M1037.9301,-612.8031C1034.6485,-595.53 1029.7409,-569.6983 1026.4644,-552.4522"/>
<text text-anchor="middle" x="1021.4109" y="-586.8276" font-family="Times,serif" font-size="14.00" fill="#000000">~13</text>
</g>
<!-- 42 -->
<g id="node11" class="node">
<title>42</title>
<ellipse fill="none" stroke="#000000" cx="870.7748" cy="-749.5034" rx="27" ry="18"/>
<text text-anchor="middle" x="870.7748" y="-745.3034" font-family="Times,serif" font-size="14.00" fill="#000000">42</text>
</g>
<!-- 1&#45;&gt;42 -->
<g id="edge10" class="edge">
<title>1&#45;&gt;42</title>
<path fill="none" stroke="#000000" d="M1022.4727,-644.1129C989.5916,-666.9567 922.2676,-713.7293 889.5094,-736.4877"/>
<text text-anchor="middle" x="945.2047" y="-694.5003" font-family="Times,serif" font-size="14.00" fill="#000000">~24</text>
</g>
<!-- 60 -->
<g id="node12" class="node">
<title>60</title>
<ellipse fill="none" stroke="#000000" cx="909.0221" cy="-457.5215" rx="27" ry="18"/>
<text text-anchor="middle" x="909.0221" y="-453.3215" font-family="Times,serif" font-size="14.00" fill="#000000">60</text>
</g>
<!-- 1&#45;&gt;60 -->
<g id="edge11" class="edge">
<title>1&#45;&gt;60</title>
<path fill="none" stroke="#000000" d="M1028.9304,-614.6574C1003.7036,-581.5985 946.8173,-507.0509 921.5376,-473.9226"/>
<text text-anchor="middle" x="964.4477" y="-531.69" font-family="Times,serif" font-size="14.00" fill="#000000">~24</text>
</g>
<!-- 2&#45;&gt;4 -->
<g id="edge12" class="edge">
<title>2&#45;&gt;4</title>
<path fill="none" stroke="#000000" d="M964.4706,-552.4459C1013.4133,-527.0899 1133.2338,-465.0139 1182.46,-439.511"/>
<text text-anchor="middle" x="1062.679" y="-500.1784" font-family="Times,serif" font-size="14.00" fill="#000000">~33</text>
</g>
<!-- 16 -->
<g id="node13" class="node">
<title>16</title>
<ellipse fill="none" stroke="#000000" cx="1128.4261" cy="-701.4984" rx="27" ry="18"/>
<text text-anchor="middle" x="1128.4261" y="-697.2984" font-family="Times,serif" font-size="14.00" fill="#000000">16</text>
</g>
<!-- 2&#45;&gt;16 -->
<g id="edge13" class="edge">
<title>2&#45;&gt;16</title>
<path fill="none" stroke="#000000" d="M961.2178,-576.9935C996.6456,-603.3733 1074.7597,-661.5379 1110.2465,-687.9616"/>
<text text-anchor="middle" x="1024.9458" y="-636.6775" font-family="Times,serif" font-size="14.00" fill="#000000">~19</text>
</g>
<!-- 30 -->
<g id="node14" class="node">
<title>30</title>
<ellipse fill="none" stroke="#000000" cx="983.0097" cy="-286.8478" rx="27" ry="18"/>
<text text-anchor="middle" x="983.0097" y="-282.6478" font-family="Times,serif" font-size="14.00" fill="#000000">30</text>
</g>
<!-- 2&#45;&gt;30 -->
<g id="edge14" class="edge">
<title>2&#45;&gt;30</title>
<path fill="none" stroke="#000000" d="M945.7295,-545.3588C952.9588,-495.229 973.1415,-355.2769 980.3823,-305.0674"/>
<text text-anchor="middle" x="952.2696" y="-429.4131" font-family="Times,serif" font-size="14.00" fill="#000000">~25</text>
</g>
<!-- 3&#45;&gt;42 -->
<g id="edge19" class="edge">
<title>3&#45;&gt;42</title>
<path fill="none" stroke="#000000" d="M766.4505,-732.1684C789.1423,-735.939 821.666,-741.3433 844.3465,-745.1119"/>
<text text-anchor="middle" x="794.6122" y="-742.8402" font-family="Times,serif" font-size="14.00" fill="#000000">~17</text>
</g>
<!-- 6 -->
<g id="node15" class="node">
<title>6</title>
<ellipse fill="none" stroke="#000000" cx="481.5913" cy="-714.2365" rx="27" ry="18"/>
<text text-anchor="middle" x="481.5913" y="-710.0365" font-family="Times,serif" font-size="14.00" fill="#000000">6</text>
</g>
<!-- 3&#45;&gt;6 -->
<g id="edge15" class="edge">
<title>3&#45;&gt;6</title>
<path fill="none" stroke="#000000" d="M712.8188,-726.3477C663.1926,-723.7484 558.4229,-718.2608 508.7791,-715.6605"/>
<text text-anchor="middle" x="600.0126" y="-725.2041" font-family="Times,serif" font-size="14.00" fill="#000000">~27</text>
</g>
<!-- 7 -->
<g id="node16" class="node">
<title>7</title>
<ellipse fill="none" stroke="#000000" cx="502.7731" cy="-572.7452" rx="27" ry="18"/>
<text text-anchor="middle" x="502.7731" y="-568.5452" font-family="Times,serif" font-size="14.00" fill="#000000">7</text>
</g>
<!-- 3&#45;&gt;7 -->
<g id="edge16" class="edge">
<title>3&#45;&gt;7</title>
<path fill="none" stroke="#000000" d="M720.5709,-715.0841C675.9791,-685.9417 566.6498,-614.491 522.1205,-585.3894"/>
<text text-anchor="middle" x="610.5594" y="-654.4368" font-family="Times,serif" font-size="14.00" fill="#000000">~43</text>
</g>
<!-- 14 -->
<g id="node17" class="node">
<title>14</title>
<ellipse fill="none" stroke="#000000" cx="696.1123" cy="-943.4592" rx="27" ry="18"/>
<text text-anchor="middle" x="696.1123" y="-939.2592" font-family="Times,serif" font-size="14.00" fill="#000000">14</text>
</g>
<!-- 3&#45;&gt;14 -->
<g id="edge17" class="edge">
<title>3&#45;&gt;14</title>
<path fill="none" stroke="#ff0000" d="M736.3179,-745.789C728.0599,-786.3891 708.0749,-884.6453 699.7977,-925.3403"/>
<text text-anchor="middle" x="728.8441" y="-839.7646" font-family="Times,serif" font-size="14.00" fill="#000000">~23</text>
</g>
<!-- 20 -->
<g id="node18" class="node">
<title>20</title>
<ellipse fill="none" stroke="#000000" cx="556.928" cy="-842.1374" rx="27" ry="18"/>
<text text-anchor="middle" x="556.928" y="-837.9374" font-family="Times,serif" font-size="14.00" fill="#000000">20</text>
</g>
<!-- 3&#45;&gt;20 -->
<g id="edge18" class="edge">
<title>3&#45;&gt;20</title>
<path fill="none" stroke="#000000" d="M720.0443,-740.2275C684.8321,-762.2269 612.0366,-807.7072 576.842,-829.6958"/>
<text text-anchor="middle" x="637.6568" y="-789.1616" font-family="Times,serif" font-size="14.00" fill="#000000">~33</text>
</g>
<!-- 32 -->
<g id="node27" class="node">
<title>32</title>
<ellipse fill="none" stroke="#000000" cx="520.2183" cy="-626.8812" rx="27" ry="18"/>
<text text-anchor="middle" x="520.2183" y="-622.6812" font-family="Times,serif" font-size="14.00" fill="#000000">32</text>
</g>
<!-- 17&#45;&gt;32 -->
<g id="edge53" class="edge">
<title>17&#45;&gt;32</title>
<path fill="none" stroke="#000000" d="M622.855,-539.5112C600.0788,-558.8995 559.7331,-593.244 537.0012,-612.5946"/>
<text text-anchor="middle" x="569.1418" y="-580.2529" font-family="Times,serif" font-size="14.00" fill="#000000">~19</text>
</g>
<!-- 11 -->
<g id="node19" class="node">
<title>11</title>
<ellipse fill="none" stroke="#000000" cx="1192.4215" cy="-229.1952" rx="27" ry="18"/>
<text text-anchor="middle" x="1192.4215" y="-224.9952" font-family="Times,serif" font-size="14.00" fill="#000000">11</text>
</g>
<!-- 4&#45;&gt;11 -->
<g id="edge20" class="edge">
<title>4&#45;&gt;11</title>
<path fill="none" stroke="#000000" d="M1203.0558,-410.2728C1200.8353,-372.4627 1195.7115,-285.2171 1193.4858,-247.3176"/>
<text text-anchor="middle" x="1187.4845" y="-332.9952" font-family="Times,serif" font-size="14.00" fill="#000000">~21</text>
</g>
<!-- 33 -->
<g id="node20" class="node">
<title>33</title>
<ellipse fill="none" stroke="#000000" cx="1369.7026" cy="-610.9948" rx="27" ry="18"/>
<text text-anchor="middle" x="1369.7026" y="-606.7948" font-family="Times,serif" font-size="14.00" fill="#000000">33</text>
</g>
<!-- 4&#45;&gt;33 -->
<g id="edge21" class="edge">
<title>4&#45;&gt;33</title>
<path fill="none" stroke="#000000" d="M1218.232,-443.8696C1249.5164,-478.3872 1324.3692,-560.9762 1355.6203,-595.4572"/>
<text text-anchor="middle" x="1276.1399" y="-523.8634" font-family="Times,serif" font-size="14.00" fill="#000000">~27</text>
</g>
<!-- 5&#45;&gt;13 -->
<g id="edge22" class="edge">
<title>5&#45;&gt;13</title>
<path fill="none" stroke="#000000" d="M1148.3777,-523.6671C1138.8404,-511.6143 1125.8642,-495.2155 1116.3356,-483.1736"/>
<text text-anchor="middle" x="1121.5703" y="-507.6203" font-family="Times,serif" font-size="14.00" fill="#000000">~22</text>
</g>
<!-- 27 -->
<g id="node21" class="node">
<title>27</title>
<ellipse fill="none" stroke="#000000" cx="1373.5257" cy="-452.6267" rx="27" ry="18"/>
<text text-anchor="middle" x="1373.5257" y="-448.4267" font-family="Times,serif" font-size="14.00" fill="#000000">27</text>
</g>
<!-- 5&#45;&gt;27 -->
<g id="edge23" class="edge">
<title>5&#45;&gt;27</title>
<path fill="none" stroke="#000000" d="M1184.2824,-530.3125C1225.1347,-513.5424 1309.5901,-478.8727 1350.422,-462.1109"/>
<text text-anchor="middle" x="1256.5659" y="-500.4117" font-family="Times,serif" font-size="14.00" fill="#000000">~29</text>
</g>
<!-- 29 -->
<g id="node22" class="node">
<title>29</title>
<ellipse fill="none" stroke="#000000" cx="1137.7017" cy="-280.5936" rx="27" ry="18"/>
<text text-anchor="middle" x="1137.7017" y="-276.3936" font-family="Times,serif" font-size="14.00" fill="#000000">29</text>
</g>
<!-- 5&#45;&gt;29 -->
<g id="edge24" class="edge">
<title>5&#45;&gt;29</title>
<path fill="none" stroke="#000000" d="M1159.5014,-521.581C1155.196,-473.9869 1143.6521,-346.3724 1139.3488,-298.8009"/>
<text text-anchor="middle" x="1138.6388" y="-414.391" font-family="Times,serif" font-size="14.00" fill="#000000">~26</text>
</g>
<!-- 35 -->
<g id="node23" class="node">
<title>35</title>
<ellipse fill="none" stroke="#000000" cx="1291.514" cy="-561.8876" rx="27" ry="18"/>
<text text-anchor="middle" x="1291.514" y="-557.6876" font-family="Times,serif" font-size="14.00" fill="#000000">35</text>
</g>
<!-- 5&#45;&gt;35 -->
<g id="edge25" class="edge">
<title>5&#45;&gt;35</title>
<path fill="none" stroke="#ff0000" d="M1187.5313,-544.2765C1210.1488,-548.1071 1242.566,-553.5975 1265.1722,-557.4262"/>
<text text-anchor="middle" x="1215.5654" y="-555.0514" font-family="Times,serif" font-size="14.00" fill="#000000">~17</text>
</g>
<!-- 63 -->
<g id="node24" class="node">
<title>63</title>
<ellipse fill="none" stroke="#000000" cx="1465.4677" cy="-307.964" rx="27" ry="18"/>
<text text-anchor="middle" x="1465.4677" y="-303.764" font-family="Times,serif" font-size="14.00" fill="#000000">63</text>
</g>
<!-- 5&#45;&gt;63 -->
<g id="edge26" class="edge">
<title>5&#45;&gt;63</title>
<path fill="none" stroke="#000000" d="M1179.2753,-525.9999C1233.4011,-484.7641 1393.4359,-362.8414 1447.4376,-321.7002"/>
<text text-anchor="middle" x="1302.5701" y="-428.0501" font-family="Times,serif" font-size="14.00" fill="#000000">~38</text>
</g>
<!-- 24 -->
<g id="node35" class="node">
<title>24</title>
<ellipse fill="none" stroke="#000000" cx="1038.053" cy="-1145.4465" rx="27" ry="18"/>
<text text-anchor="middle" x="1038.053" y="-1141.2465" font-family="Times,serif" font-size="14.00" fill="#000000">24</text>
</g>
<!-- 10&#45;&gt;24 -->
<g id="edge40" class="edge">
<title>10&#45;&gt;24</title>
<path fill="none" stroke="#000000" d="M1087.3792,-730.9423C1079.0076,-801.2919 1048.596,-1056.85 1040.2083,-1127.3345"/>
<text text-anchor="middle" x="1053.0075" y="-933.3384" font-family="Times,serif" font-size="14.00" fill="#000000">~43</text>
</g>
<!-- 40 -->
<g id="node36" class="node">
<title>40</title>
<ellipse fill="none" stroke="#000000" cx="1348.905" cy="-777.6377" rx="27" ry="18"/>
<text text-anchor="middle" x="1348.905" y="-773.4377" font-family="Times,serif" font-size="14.00" fill="#000000">40</text>
</g>
<!-- 10&#45;&gt;40 -->
<g id="edge41" class="edge">
<title>10&#45;&gt;40</title>
<path fill="none" stroke="#000000" d="M1114.868,-719.2318C1164.4554,-731.6067 1273.7896,-758.892 1323.4595,-771.2875"/>
<text text-anchor="middle" x="1229.9501" y="-749.4597" font-family="Times,serif" font-size="14.00" fill="#000000">~24</text>
</g>
<!-- 21&#45;&gt;27 -->
<g id="edge61" class="edge">
<title>21&#45;&gt;27</title>
<path fill="none" stroke="#000000" d="M1048.5167,-528.4173C1113.1043,-513.3557 1282.663,-473.8154 1347.6582,-458.6588"/>
<text text-anchor="middle" x="1187.3012" y="-497.738" font-family="Times,serif" font-size="14.00" fill="#000000">~33</text>
</g>
<!-- 39 -->
<g id="node49" class="node">
<title>39</title>
<ellipse fill="none" stroke="#000000" cx="956.8848" cy="-374.307" rx="27" ry="18"/>
<text text-anchor="middle" x="956.8848" y="-370.107" font-family="Times,serif" font-size="14.00" fill="#000000">39</text>
</g>
<!-- 21&#45;&gt;39 -->
<g id="edge62" class="edge">
<title>21&#45;&gt;39</title>
<path fill="none" stroke="#000000" d="M1015.8231,-516.928C1003.1,-486.1401 976.797,-422.4914 964.0803,-391.7188"/>
<text text-anchor="middle" x="979.1654" y="-458.5234" font-family="Times,serif" font-size="14.00" fill="#000000">~16</text>
</g>
<!-- 43 -->
<g id="node41" class="node">
<title>43</title>
<ellipse fill="none" stroke="#000000" cx="762.9192" cy="-888.012" rx="27" ry="18"/>
<text text-anchor="middle" x="762.9192" y="-883.812" font-family="Times,serif" font-size="14.00" fill="#000000">43</text>
</g>
<!-- 42&#45;&gt;43 -->
<g id="edge86" class="edge">
<title>42&#45;&gt;43</title>
<path fill="none" stroke="#000000" d="M858.1913,-765.6631C837.4087,-792.3523 796.1524,-845.3337 775.4225,-871.9552"/>
<text text-anchor="middle" x="806.0206" y="-823.0091" font-family="Times,serif" font-size="14.00" fill="#000000">~23</text>
</g>
<!-- 38 -->
<g id="node43" class="node">
<title>38</title>
<ellipse fill="none" stroke="#000000" cx="1216.1681" cy="-746.707" rx="27" ry="18"/>
<text text-anchor="middle" x="1216.1681" y="-742.507" font-family="Times,serif" font-size="14.00" fill="#000000">38</text>
</g>
<!-- 16&#45;&gt;38 -->
<g id="edge51" class="edge">
<title>16&#45;&gt;38</title>
<path fill="none" stroke="#000000" d="M1150.1151,-712.6735C1163.7156,-719.6811 1181.1757,-728.6773 1194.7286,-735.6604"/>
<text text-anchor="middle" x="1161.6356" y="-728.3669" font-family="Times,serif" font-size="14.00" fill="#000000">~12</text>
</g>
<!-- 50 -->
<g id="node44" class="node">
<title>50</title>
<ellipse fill="none" stroke="#000000" cx="1255.0029" cy="-830.549" rx="27" ry="18"/>
<text text-anchor="middle" x="1255.0029" y="-826.349" font-family="Times,serif" font-size="14.00" fill="#000000">50</text>
</g>
<!-- 16&#45;&gt;50 -->
<g id="edge52" class="edge">
<title>16&#45;&gt;50</title>
<path fill="none" stroke="#000000" d="M1143.4432,-716.8089C1167.804,-741.6459 1215.6571,-790.4342 1240.0054,-815.2583"/>
<text text-anchor="middle" x="1180.938" y="-770.2336" font-family="Times,serif" font-size="14.00" fill="#000000">~21</text>
</g>
<!-- 6&#45;&gt;7 -->
<g id="edge27" class="edge">
<title>6&#45;&gt;7</title>
<path fill="none" stroke="#000000" d="M484.274,-696.3165C488.3261,-669.2488 495.9667,-618.2111 500.0453,-590.9666"/>
<text text-anchor="middle" x="481.3733" y="-647.8416" font-family="Times,serif" font-size="14.00" fill="#000000">~16</text>
</g>
<!-- 8 -->
<g id="node25" class="node">
<title>8</title>
<ellipse fill="none" stroke="#000000" cx="431.6093" cy="-830.1853" rx="27" ry="18"/>
<text text-anchor="middle" x="431.6093" y="-825.9853" font-family="Times,serif" font-size="14.00" fill="#000000">8</text>
</g>
<!-- 6&#45;&gt;8 -->
<g id="edge28" class="edge">
<title>6&#45;&gt;8</title>
<path fill="none" stroke="#000000" d="M474.1085,-731.5952C464.6858,-753.4539 448.5899,-790.7934 439.1432,-812.7079"/>
<text text-anchor="middle" x="445.8396" y="-776.3516" font-family="Times,serif" font-size="14.00" fill="#000000">~14</text>
</g>
<!-- 9 -->
<g id="node26" class="node">
<title>9</title>
<ellipse fill="none" stroke="#000000" cx="321.0923" cy="-789.463" rx="27" ry="18"/>
<text text-anchor="middle" x="321.0923" y="-785.263" font-family="Times,serif" font-size="14.00" fill="#000000">9</text>
</g>
<!-- 6&#45;&gt;9 -->
<g id="edge29" class="edge">
<title>6&#45;&gt;9</title>
<path fill="none" stroke="#000000" d="M459.2746,-724.6964C428.6108,-739.0687 373.7833,-764.7665 343.2195,-779.0919"/>
<text text-anchor="middle" x="390.4607" y="-756.0942" font-family="Times,serif" font-size="14.00" fill="#000000">~22</text>
</g>
<!-- 6&#45;&gt;32 -->
<g id="edge30" class="edge">
<title>6&#45;&gt;32</title>
<path fill="none" stroke="#000000" d="M489.408,-696.5589C496.1537,-681.3034 505.8414,-659.3946 512.545,-644.2344"/>
<text text-anchor="middle" x="490.1902" y="-674.5966" font-family="Times,serif" font-size="14.00" fill="#000000">~14</text>
</g>
<!-- 55 -->
<g id="node28" class="node">
<title>55</title>
<ellipse fill="none" stroke="#000000" cx="332.4832" cy="-501.1067" rx="27" ry="18"/>
<text text-anchor="middle" x="332.4832" y="-496.9067" font-family="Times,serif" font-size="14.00" fill="#000000">55</text>
</g>
<!-- 6&#45;&gt;55 -->
<g id="edge31" class="edge">
<title>6&#45;&gt;55</title>
<path fill="none" stroke="#000000" d="M470.1386,-697.8665C442.3835,-658.1943 371.7701,-557.262 343.9749,-517.5325"/>
<text text-anchor="middle" x="396.2705" y="-611.8995" font-family="Times,serif" font-size="14.00" fill="#000000">~35</text>
</g>
<!-- 7&#45;&gt;17 -->
<g id="edge32" class="edge">
<title>7&#45;&gt;17</title>
<path fill="none" stroke="#000000" d="M526.9418,-564.346C551.8214,-555.6998 590.3764,-542.301 615.3359,-533.627"/>
<text text-anchor="middle" x="560.3526" y="-553.1865" font-family="Times,serif" font-size="14.00" fill="#000000">~18</text>
</g>
<!-- 28 -->
<g id="node40" class="node">
<title>28</title>
<ellipse fill="none" stroke="#000000" cx="712.4564" cy="-1085.9774" rx="27" ry="18"/>
<text text-anchor="middle" x="712.4564" y="-1081.7774" font-family="Times,serif" font-size="14.00" fill="#000000">28</text>
</g>
<!-- 14&#45;&gt;28 -->
<g id="edge48" class="edge">
<title>14&#45;&gt;28</title>
<path fill="none" stroke="#ff0000" d="M698.1823,-961.5092C701.309,-988.7734 707.2045,-1040.1815 710.3516,-1067.6237"/>
<text text-anchor="middle" x="693.4806" y="-1018.7665" font-family="Times,serif" font-size="14.00" fill="#000000">~17</text>
</g>
<!-- 14&#45;&gt;43 -->
<g id="edge49" class="edge">
<title>14&#45;&gt;43</title>
<path fill="none" stroke="#000000" d="M713.3168,-929.1802C723.3686,-920.8375 736.0027,-910.3517 746.0043,-902.0507"/>
<text text-anchor="middle" x="718.8743" y="-903.0154" font-family="Times,serif" font-size="14.00" fill="#000000">~12</text>
</g>
<!-- 19 -->
<g id="node37" class="node">
<title>19</title>
<ellipse fill="none" stroke="#000000" cx="1096.5295" cy="-221.9835" rx="27" ry="18"/>
<text text-anchor="middle" x="1096.5295" y="-217.7835" font-family="Times,serif" font-size="14.00" fill="#000000">19</text>
</g>
<!-- 11&#45;&gt;19 -->
<g id="edge42" class="edge">
<title>11&#45;&gt;19</title>
<path fill="none" stroke="#000000" d="M1165.455,-227.1671C1152.3817,-226.1839 1136.7162,-225.0058 1123.6258,-224.0213"/>
<text text-anchor="middle" x="1149.9336" y="-212.9942" font-family="Times,serif" font-size="14.00" fill="#000000">~11</text>
</g>
<!-- 33&#45;&gt;35 -->
<g id="edge75" class="edge">
<title>33&#45;&gt;35</title>
<path fill="none" stroke="#ff0000" d="M1349.9723,-598.603C1338.1195,-591.1587 1323.0896,-581.719 1311.238,-574.2754"/>
<text text-anchor="middle" x="1319.8188" y="-590.6392" font-family="Times,serif" font-size="14.00" fill="#000000">~14</text>
</g>
<!-- 33&#45;&gt;40 -->
<g id="edge77" class="edge">
<title>33&#45;&gt;40</title>
<path fill="none" stroke="#000000" d="M1367.4373,-629.1458C1363.4367,-661.201 1355.1661,-727.4698 1351.1675,-759.5091"/>
<text text-anchor="middle" x="1348.5161" y="-698.5274" font-family="Times,serif" font-size="14.00" fill="#000000">~22</text>
</g>
<!-- 33&#45;&gt;38 -->
<g id="edge76" class="edge">
<title>33&#45;&gt;38</title>
<path fill="none" stroke="#000000" d="M1353.2717,-625.5184C1323.7206,-651.6392 1261.9458,-706.2432 1232.4809,-732.2878"/>
<text text-anchor="middle" x="1282.09" y="-683.1031" font-family="Times,serif" font-size="14.00" fill="#000000">~24</text>
</g>
<!-- 27&#45;&gt;33 -->
<g id="edge73" class="edge">
<title>27&#45;&gt;33</title>
<path fill="none" stroke="#000000" d="M1373.0871,-470.7935C1372.3536,-501.1797 1370.8858,-561.9828 1370.1478,-592.552"/>
<text text-anchor="middle" x="1360.8312" y="-535.8728" font-family="Times,serif" font-size="14.00" fill="#000000">~27</text>
</g>
<!-- 15 -->
<g id="node29" class="node">
<title>15</title>
<ellipse fill="none" stroke="#000000" cx="315.9772" cy="-861.7639" rx="27" ry="18"/>
<text text-anchor="middle" x="315.9772" y="-857.5639" font-family="Times,serif" font-size="14.00" fill="#000000">15</text>
</g>
<!-- 8&#45;&gt;15 -->
<g id="edge33" class="edge">
<title>8&#45;&gt;15</title>
<path fill="none" stroke="#000000" d="M406.5188,-837.0374C387.1235,-842.3341 360.4017,-849.6317 341.0187,-854.9252"/>
<text text-anchor="middle" x="362.9824" y="-850.1813" font-family="Times,serif" font-size="14.00" fill="#000000">~14</text>
</g>
<!-- 18 -->
<g id="node30" class="node">
<title>18</title>
<ellipse fill="none" stroke="#000000" cx="445.1265" cy="-1047.5903" rx="27" ry="18"/>
<text text-anchor="middle" x="445.1265" y="-1043.3903" font-family="Times,serif" font-size="14.00" fill="#000000">18</text>
</g>
<!-- 8&#45;&gt;18 -->
<g id="edge34" class="edge">
<title>8&#45;&gt;18</title>
<path fill="none" stroke="#000000" d="M432.7385,-848.3472C435.2829,-889.2704 441.4406,-988.3084 443.991,-1029.3272"/>
<text text-anchor="middle" x="427.5785" y="-943.0372" font-family="Times,serif" font-size="14.00" fill="#000000">~20</text>
</g>
<!-- 9&#45;&gt;15 -->
<g id="edge36" class="edge">
<title>9&#45;&gt;15</title>
<path fill="none" stroke="#000000" d="M319.8016,-807.7076C319.0202,-818.7515 318.0279,-832.7783 317.2498,-843.7756"/>
<text text-anchor="middle" x="307.7394" y="-829.9416" font-family="Times,serif" font-size="14.00" fill="#000000">~12</text>
</g>
<!-- 12 -->
<g id="node31" class="node">
<title>12</title>
<ellipse fill="none" stroke="#000000" cx="546.0784" cy="-979.1119" rx="27" ry="18"/>
<text text-anchor="middle" x="546.0784" y="-974.9119" font-family="Times,serif" font-size="14.00" fill="#000000">12</text>
</g>
<!-- 9&#45;&gt;12 -->
<g id="edge35" class="edge">
<title>9&#45;&gt;12</title>
<path fill="none" stroke="#000000" d="M338.0028,-803.7175C379.8,-838.9498 487.5981,-929.8168 529.2785,-964.9507"/>
<text text-anchor="middle" x="422.8544" y="-888.5341" font-family="Times,serif" font-size="14.00" fill="#000000">~38</text>
</g>
<!-- 23 -->
<g id="node32" class="node">
<title>23</title>
<ellipse fill="none" stroke="#000000" cx="212.208" cy="-713.1061" rx="27" ry="18"/>
<text text-anchor="middle" x="212.208" y="-708.9061" font-family="Times,serif" font-size="14.00" fill="#000000">23</text>
</g>
<!-- 9&#45;&gt;23 -->
<g id="edge37" class="edge">
<title>9&#45;&gt;23</title>
<path fill="none" stroke="#000000" d="M302.1261,-776.1626C282.1411,-762.1479 250.8595,-740.2111 230.9569,-726.2541"/>
<text text-anchor="middle" x="255.7552" y="-755.4084" font-family="Times,serif" font-size="14.00" fill="#000000">~16</text>
</g>
<!-- 47 -->
<g id="node33" class="node">
<title>47</title>
<ellipse fill="none" stroke="#000000" cx="402.5748" cy="-1023.9217" rx="27" ry="18"/>
<text text-anchor="middle" x="402.5748" y="-1019.7217" font-family="Times,serif" font-size="14.00" fill="#000000">47</text>
</g>
<!-- 9&#45;&gt;47 -->
<g id="edge38" class="edge">
<title>9&#45;&gt;47</title>
<path fill="none" stroke="#000000" d="M327.2168,-807.0855C342.3173,-850.536 381.2045,-962.4303 396.3793,-1006.0947"/>
<text text-anchor="middle" x="351.0117" y="-910.7901" font-family="Times,serif" font-size="14.00" fill="#000000">~26</text>
</g>
<!-- 61 -->
<g id="node34" class="node">
<title>61</title>
<ellipse fill="none" stroke="#000000" cx="190.4196" cy="-827.0348" rx="27" ry="18"/>
<text text-anchor="middle" x="190.4196" y="-822.8348" font-family="Times,serif" font-size="14.00" fill="#000000">61</text>
</g>
<!-- 9&#45;&gt;61 -->
<g id="edge39" class="edge">
<title>9&#45;&gt;61</title>
<path fill="none" stroke="#000000" d="M296.2062,-796.6184C272.9546,-803.3039 238.4347,-813.2292 215.213,-819.906"/>
<text text-anchor="middle" x="244.9233" y="-812.4622" font-family="Times,serif" font-size="14.00" fill="#000000">~16</text>
</g>
<!-- 56 -->
<g id="node63" class="node">
<title>56</title>
<ellipse fill="none" stroke="#000000" cx="190.9824" cy="-381.1769" rx="27" ry="18"/>
<text text-anchor="middle" x="190.9824" y="-376.9769" font-family="Times,serif" font-size="14.00" fill="#000000">56</text>
</g>
<!-- 55&#45;&gt;56 -->
<g id="edge90" class="edge">
<title>55&#45;&gt;56</title>
<path fill="none" stroke="#000000" d="M315.6956,-486.8782C288.4625,-463.7967 234.9673,-418.4565 207.7482,-395.3869"/>
<text text-anchor="middle" x="250.9356" y="-445.3326" font-family="Times,serif" font-size="14.00" fill="#000000">~22</text>
</g>
<!-- 34 -->
<g id="node42" class="node">
<title>34</title>
<ellipse fill="none" stroke="#000000" cx="27" cy="-886.8604" rx="27" ry="18"/>
<text text-anchor="middle" x="27" y="-882.6604" font-family="Times,serif" font-size="14.00" fill="#000000">34</text>
</g>
<!-- 15&#45;&gt;34 -->
<g id="edge50" class="edge">
<title>15&#45;&gt;34</title>
<path fill="none" stroke="#000000" d="M289.0504,-864.1023C233.9854,-868.8845 109.0599,-879.7338 53.9637,-884.5187"/>
<text text-anchor="middle" x="160.7208" y="-878.5105" font-family="Times,serif" font-size="14.00" fill="#000000">~31</text>
</g>
<!-- 44 -->
<g id="node39" class="node">
<title>44</title>
<ellipse fill="none" stroke="#000000" cx="233.5403" cy="-1205.2069" rx="27" ry="18"/>
<text text-anchor="middle" x="233.5403" y="-1201.0069" font-family="Times,serif" font-size="14.00" fill="#000000">44</text>
</g>
<!-- 18&#45;&gt;44 -->
<g id="edge55" class="edge">
<title>18&#45;&gt;44</title>
<path fill="none" stroke="#000000" d="M427.0868,-1061.0286C387.2122,-1090.7323 291.9444,-1161.7 251.8349,-1191.5787"/>
<text text-anchor="middle" x="328.6745" y="-1130.5036" font-family="Times,serif" font-size="14.00" fill="#000000">~34</text>
</g>
<!-- 25 -->
<g id="node45" class="node">
<title>25</title>
<ellipse fill="none" stroke="#000000" cx="689.1195" cy="-1216.8051" rx="27" ry="18"/>
<text text-anchor="middle" x="689.1195" y="-1212.6051" font-family="Times,serif" font-size="14.00" fill="#000000">25</text>
</g>
<!-- 18&#45;&gt;25 -->
<g id="edge54" class="edge">
<title>18&#45;&gt;25</title>
<path fill="none" stroke="#000000" d="M463.8671,-1060.5873C509.2842,-1092.0851 624.8324,-1172.2205 670.3151,-1203.7638"/>
<text text-anchor="middle" x="556.3048" y="-1136.3755" font-family="Times,serif" font-size="14.00" fill="#000000">~26</text>
</g>
<!-- 12&#45;&gt;14 -->
<g id="edge43" class="edge">
<title>12&#45;&gt;14</title>
<path fill="none" stroke="#000000" d="M571.5296,-973.0639C599.119,-966.5078 642.8981,-956.1045 670.5363,-949.5369"/>
<text text-anchor="middle" x="610.2466" y="-965.5004" font-family="Times,serif" font-size="14.00" fill="#000000">~17</text>
</g>
<!-- 12&#45;&gt;20 -->
<g id="edge44" class="edge">
<title>12&#45;&gt;20</title>
<path fill="none" stroke="#000000" d="M547.5191,-960.9227C549.5943,-934.7245 553.4028,-886.6419 555.4813,-860.4018"/>
<text text-anchor="middle" x="540.7139" y="-914.8622" font-family="Times,serif" font-size="14.00" fill="#000000">~21</text>
</g>
<!-- 12&#45;&gt;47 -->
<g id="edge47" class="edge">
<title>12&#45;&gt;47</title>
<path fill="none" stroke="#000000" d="M521.4092,-986.8149C495.1245,-995.0225 453.7474,-1007.9427 427.4023,-1016.1691"/>
<text text-anchor="middle" x="463.6195" y="-1005.692" font-family="Times,serif" font-size="14.00" fill="#000000">~17</text>
</g>
<!-- 22 -->
<g id="node38" class="node">
<title>22</title>
<ellipse fill="none" stroke="#000000" cx="532.9512" cy="-1113.1207" rx="27" ry="18"/>
<text text-anchor="middle" x="532.9512" y="-1108.9207" font-family="Times,serif" font-size="14.00" fill="#000000">22</text>
</g>
<!-- 12&#45;&gt;22 -->
<g id="edge45" class="edge">
<title>12&#45;&gt;22</title>
<path fill="none" stroke="#000000" d="M544.308,-997.1849C541.8026,-1022.7614 537.2484,-1069.2526 534.7355,-1094.906"/>
<text text-anchor="middle" x="528.7354" y="-1050.2455" font-family="Times,serif" font-size="14.00" fill="#000000">~17</text>
</g>
<!-- 12&#45;&gt;44 -->
<g id="edge46" class="edge">
<title>12&#45;&gt;44</title>
<path fill="none" stroke="#000000" d="M527.4636,-992.578C471.8758,-1032.7912 307.5179,-1151.6903 252.0575,-1191.8113"/>
<text text-anchor="middle" x="378.9743" y="-1096.3947" font-family="Times,serif" font-size="14.00" fill="#000000">~44</text>
</g>
<!-- 51 -->
<g id="node57" class="node">
<title>51</title>
<ellipse fill="none" stroke="#000000" cx="513.4378" cy="-1312.3004" rx="27" ry="18"/>
<text text-anchor="middle" x="513.4378" y="-1308.1004" font-family="Times,serif" font-size="14.00" fill="#000000">51</text>
</g>
<!-- 47&#45;&gt;51 -->
<g id="edge89" class="edge">
<title>47&#45;&gt;51</title>
<path fill="none" stroke="#000000" d="M409.3429,-1041.5269C429.1349,-1093.01 486.7591,-1242.9031 506.6175,-1294.5591"/>
<text text-anchor="middle" x="447.1939" y="-1172.243" font-family="Times,serif" font-size="14.00" fill="#000000">~30</text>
</g>
<!-- 31 -->
<g id="node51" class="node">
<title>31</title>
<ellipse fill="none" stroke="#000000" cx="853.591" cy="-1362.5166" rx="27" ry="18"/>
<text text-anchor="middle" x="853.591" y="-1358.3166" font-family="Times,serif" font-size="14.00" fill="#000000">31</text>
</g>
<!-- 24&#45;&gt;31 -->
<g id="edge64" class="edge">
<title>24&#45;&gt;31</title>
<path fill="none" stroke="#000000" d="M1024.4891,-1161.4082C990.2932,-1201.649 900.874,-1306.8752 866.926,-1346.8243"/>
<text text-anchor="middle" x="934.9212" y="-1258.3162" font-family="Times,serif" font-size="14.00" fill="#000000">~29</text>
</g>
<!-- 57 -->
<g id="node52" class="node">
<title>57</title>
<ellipse fill="none" stroke="#000000" cx="980.8038" cy="-1191.0562" rx="27" ry="18"/>
<text text-anchor="middle" x="980.8038" y="-1186.8562" font-family="Times,serif" font-size="14.00" fill="#000000">57</text>
</g>
<!-- 24&#45;&gt;57 -->
<g id="edge65" class="edge">
<title>24&#45;&gt;57</title>
<path fill="none" stroke="#000000" d="M1020.5653,-1159.3787C1013.4626,-1165.0373 1005.2762,-1171.5594 998.1845,-1177.2093"/>
<text text-anchor="middle" x="998.5886" y="-1155.694" font-family="Times,serif" font-size="14.00" fill="#000000">~10</text>
</g>
<!-- 41 -->
<g id="node58" class="node">
<title>41</title>
<ellipse fill="none" stroke="#000000" cx="1526.192" cy="-930.0864" rx="27" ry="18"/>
<text text-anchor="middle" x="1526.192" y="-925.8864" font-family="Times,serif" font-size="14.00" fill="#000000">41</text>
</g>
<!-- 40&#45;&gt;41 -->
<g id="edge82" class="edge">
<title>40&#45;&gt;41</title>
<path fill="none" stroke="#000000" d="M1365.5837,-791.9797C1399.3732,-821.0352 1475.5682,-886.5551 1509.4284,-915.6715"/>
<text text-anchor="middle" x="1426.7198" y="-858.0256" font-family="Times,serif" font-size="14.00" fill="#000000">~25</text>
</g>
<!-- 58 -->
<g id="node59" class="node">
<title>58</title>
<ellipse fill="none" stroke="#000000" cx="1444.7947" cy="-784.203" rx="27" ry="18"/>
<text text-anchor="middle" x="1444.7947" y="-780.003" font-family="Times,serif" font-size="14.00" fill="#000000">58</text>
</g>
<!-- 40&#45;&gt;58 -->
<g id="edge83" class="edge">
<title>40&#45;&gt;58</title>
<path fill="none" stroke="#000000" d="M1375.8708,-779.484C1388.9438,-780.379 1404.609,-781.4516 1417.6991,-782.3479"/>
<text text-anchor="middle" x="1385.9986" y="-785.1159" font-family="Times,serif" font-size="14.00" fill="#000000">~13</text>
</g>
<!-- 19&#45;&gt;30 -->
<g id="edge57" class="edge">
<title>19&#45;&gt;30</title>
<path fill="none" stroke="#000000" d="M1075.9719,-233.7299C1055.5261,-245.4125 1024.3242,-263.2411 1003.798,-274.9696"/>
<text text-anchor="middle" x="1029.0987" y="-258.5498" font-family="Times,serif" font-size="14.00" fill="#000000">~15</text>
</g>
<!-- 19&#45;&gt;29 -->
<g id="edge56" class="edge">
<title>19&#45;&gt;29</title>
<path fill="none" stroke="#000000" d="M1107.9983,-238.3097C1113.6136,-246.3034 1120.3632,-255.9117 1126.0084,-263.9477"/>
<text text-anchor="middle" x="1127.7896" y="-238.5287" font-family="Times,serif" font-size="14.00" fill="#000000">~10</text>
</g>
<!-- 48 -->
<g id="node46" class="node">
<title>48</title>
<ellipse fill="none" stroke="#000000" cx="908.1961" cy="-218.6667" rx="27" ry="18"/>
<text text-anchor="middle" x="908.1961" y="-214.4667" font-family="Times,serif" font-size="14.00" fill="#000000">48</text>
</g>
<!-- 19&#45;&gt;48 -->
<g id="edge58" class="edge">
<title>19&#45;&gt;48</title>
<path fill="none" stroke="#000000" d="M1069.1442,-221.5012C1033.3355,-220.8706 970.9824,-219.7725 935.3089,-219.1442"/>
<text text-anchor="middle" x="991.4403" y="-224.5227" font-family="Times,serif" font-size="14.00" fill="#000000">~27</text>
</g>
<!-- 53 -->
<g id="node47" class="node">
<title>53</title>
<ellipse fill="none" stroke="#000000" cx="1162.6423" cy="-18" rx="27" ry="18"/>
<text text-anchor="middle" x="1162.6423" y="-13.8" font-family="Times,serif" font-size="14.00" fill="#000000">53</text>
</g>
<!-- 19&#45;&gt;53 -->
<g id="edge59" class="edge">
<title>19&#45;&gt;53</title>
<path fill="none" stroke="#000000" d="M1102.2809,-204.2381C1114.7844,-165.6602 1144.323,-74.522 1156.857,-35.8496"/>
<text text-anchor="middle" x="1118.7827" y="-124.2439" font-family="Times,serif" font-size="14.00" fill="#000000">~25</text>
</g>
<!-- 62 -->
<g id="node48" class="node">
<title>62</title>
<ellipse fill="none" stroke="#000000" cx="1065.3943" cy="-107.1102" rx="27" ry="18"/>
<text text-anchor="middle" x="1065.3943" y="-102.9102" font-family="Times,serif" font-size="14.00" fill="#000000">62</text>
</g>
<!-- 19&#45;&gt;62 -->
<g id="edge60" class="edge">
<title>19&#45;&gt;62</title>
<path fill="none" stroke="#000000" d="M1091.6646,-204.0346C1085.8154,-182.4537 1076.059,-146.4576 1070.225,-124.9332"/>
<text text-anchor="middle" x="1070.1585" y="-168.6839" font-family="Times,serif" font-size="14.00" fill="#000000">~15</text>
</g>
<!-- 36 -->
<g id="node50" class="node">
<title>36</title>
<ellipse fill="none" stroke="#000000" cx="639.8315" cy="-1121.8413" rx="27" ry="18"/>
<text text-anchor="middle" x="639.8315" y="-1117.6413" font-family="Times,serif" font-size="14.00" fill="#000000">36</text>
</g>
<!-- 22&#45;&gt;36 -->
<g id="edge63" class="edge">
<title>22&#45;&gt;36</title>
<path fill="none" stroke="#000000" d="M559.9216,-1115.3213C576.1239,-1116.6432 596.669,-1118.3196 612.8697,-1119.6414"/>
<text text-anchor="middle" x="575.6094" y="-1104.8813" font-family="Times,serif" font-size="14.00" fill="#000000">~14</text>
</g>
<!-- 28&#45;&gt;36 -->
<g id="edge74" class="edge">
<title>28&#45;&gt;36</title>
<path fill="none" stroke="#000000" d="M690.6665,-1096.7377C681.4746,-1101.2769 670.7962,-1106.5501 661.606,-1111.0885"/>
<text text-anchor="middle" x="665.35" y="-1091.3131" font-family="Times,serif" font-size="14.00" fill="#000000">~11</text>
</g>
<!-- 43&#45;&gt;55 -->
<g id="edge88" class="edge">
<title>43&#45;&gt;55</title>
<path fill="none" stroke="#000000" d="M746.8312,-873.551C679.0677,-812.6405 417.236,-577.2883 348.8822,-515.8472"/>
<text text-anchor="middle" x="537.0704" y="-698.8991" font-family="Times,serif" font-size="14.00" fill="#000000">~44</text>
</g>
<!-- 45 -->
<g id="node62" class="node">
<title>45</title>
<ellipse fill="none" stroke="#000000" cx="692.0348" cy="-820.8367" rx="27" ry="18"/>
<text text-anchor="middle" x="692.0348" y="-816.6367" font-family="Times,serif" font-size="14.00" fill="#000000">45</text>
</g>
<!-- 43&#45;&gt;45 -->
<g id="edge87" class="edge">
<title>43&#45;&gt;45</title>
<path fill="none" stroke="#000000" d="M747.1877,-873.1036C735.4409,-861.9715 719.4586,-846.8255 707.7224,-835.7034"/>
<text text-anchor="middle" x="716.6687" y="-858.6035" font-family="Times,serif" font-size="14.00" fill="#000000">~15</text>
</g>
<!-- 38&#45;&gt;50 -->
<g id="edge79" class="edge">
<title>38&#45;&gt;50</title>
<path fill="none" stroke="#000000" d="M1224.2147,-764.0791C1230.8797,-778.4684 1240.3045,-798.8159 1246.9666,-813.1991"/>
<text text-anchor="middle" x="1224.8044" y="-792.8391" font-family="Times,serif" font-size="14.00" fill="#000000">~11</text>
</g>
<!-- 25&#45;&gt;28 -->
<g id="edge67" class="edge">
<title>25&#45;&gt;28</title>
<path fill="none" stroke="#ff0000" d="M692.3155,-1198.8884C696.7595,-1173.975 704.7608,-1129.1189 709.2241,-1104.0975"/>
<text text-anchor="middle" x="689.9835" y="-1155.6929" font-family="Times,serif" font-size="14.00" fill="#000000">~18</text>
</g>
<!-- 26 -->
<g id="node53" class="node">
<title>26</title>
<ellipse fill="none" stroke="#000000" cx="640.5483" cy="-1319.9361" rx="27" ry="18"/>
<text text-anchor="middle" x="640.5483" y="-1315.7361" font-family="Times,serif" font-size="14.00" fill="#000000">26</text>
</g>
<!-- 25&#45;&gt;26 -->
<g id="edge66" class="edge">
<title>25&#45;&gt;26</title>
<path fill="none" stroke="#ff0000" d="M680.8801,-1234.2999C671.8943,-1253.3793 657.6036,-1283.7227 648.666,-1302.6997"/>
<text text-anchor="middle" x="653.9868" y="-1272.6998" font-family="Times,serif" font-size="14.00" fill="#000000">~14</text>
</g>
<!-- 37 -->
<g id="node54" class="node">
<title>37</title>
<ellipse fill="none" stroke="#000000" cx="893.707" cy="-1218.5469" rx="27" ry="18"/>
<text text-anchor="middle" x="893.707" y="-1214.3469" font-family="Times,serif" font-size="14.00" fill="#000000">37</text>
</g>
<!-- 25&#45;&gt;37 -->
<g id="edge68" class="edge">
<title>25&#45;&gt;37</title>
<path fill="none" stroke="#000000" d="M716.2872,-1217.0364C755.4173,-1217.3695 827.2344,-1217.9809 866.427,-1218.3146"/>
<text text-anchor="middle" x="780.5708" y="-1221.8755" font-family="Times,serif" font-size="14.00" fill="#000000">~22</text>
</g>
<!-- 39&#45;&gt;60 -->
<g id="edge81" class="edge">
<title>39&#45;&gt;60</title>
<path fill="none" stroke="#000000" d="M947.1991,-391.1467C938.8951,-405.5841 926.9932,-426.2768 918.6934,-440.7069"/>
<text text-anchor="middle" x="922.16" y="-420.1268" font-family="Times,serif" font-size="14.00" fill="#000000">~19</text>
</g>
<!-- 39&#45;&gt;48 -->
<g id="edge80" class="edge">
<title>39&#45;&gt;48</title>
<path fill="none" stroke="#000000" d="M951.2996,-356.4531C941.9077,-326.4306 923.0642,-266.1946 913.7162,-236.3124"/>
<text text-anchor="middle" x="921.7216" y="-300.5828" font-family="Times,serif" font-size="14.00" fill="#000000">~17</text>
</g>
<!-- 26&#45;&gt;31 -->
<g id="edge69" class="edge">
<title>26&#45;&gt;31</title>
<path fill="none" stroke="#000000" d="M666.6715,-1325.1573C707.6712,-1333.3518 786.6621,-1349.1396 827.5876,-1357.3193"/>
<text text-anchor="middle" x="736.3433" y="-1345.4383" font-family="Times,serif" font-size="14.00" fill="#000000">~23</text>
</g>
<!-- 46 -->
<g id="node55" class="node">
<title>46</title>
<ellipse fill="none" stroke="#000000" cx="575.4646" cy="-1431.942" rx="27" ry="18"/>
<text text-anchor="middle" x="575.4646" y="-1427.742" font-family="Times,serif" font-size="14.00" fill="#000000">46</text>
</g>
<!-- 26&#45;&gt;46 -->
<g id="edge70" class="edge">
<title>26&#45;&gt;46</title>
<path fill="none" stroke="#ff0000" d="M630.6635,-1336.9474C618.3595,-1358.1218 597.4769,-1394.0599 585.2291,-1415.1376"/>
<text text-anchor="middle" x="597.16" y="-1380.2425" font-family="Times,serif" font-size="14.00" fill="#000000">~15</text>
</g>
<!-- 49 -->
<g id="node56" class="node">
<title>49</title>
<ellipse fill="none" stroke="#000000" cx="673.2734" cy="-1441.1755" rx="27" ry="18"/>
<text text-anchor="middle" x="673.2734" y="-1436.9755" font-family="Times,serif" font-size="14.00" fill="#000000">49</text>
</g>
<!-- 26&#45;&gt;49 -->
<g id="edge71" class="edge">
<title>26&#45;&gt;49</title>
<path fill="none" stroke="#000000" d="M645.377,-1337.8254C651.5642,-1360.7477 662.2281,-1400.2552 668.4249,-1423.2128"/>
<text text-anchor="middle" x="646.1146" y="-1384.7191" font-family="Times,serif" font-size="14.00" fill="#000000">~15</text>
</g>
<!-- 26&#45;&gt;51 -->
<g id="edge72" class="edge">
<title>26&#45;&gt;51</title>
<path fill="none" stroke="#000000" d="M613.5914,-1318.3168C592.0204,-1317.021 561.9167,-1315.2126 540.3558,-1313.9174"/>
<text text-anchor="middle" x="566.1873" y="-1320.3171" font-family="Times,serif" font-size="14.00" fill="#000000">~14</text>
</g>
<!-- 37&#45;&gt;57 -->
<g id="edge78" class="edge">
<title>37&#45;&gt;57</title>
<path fill="none" stroke="#000000" d="M918.4325,-1210.7427C930.3015,-1206.9964 944.4804,-1202.5211 956.318,-1198.7847"/>
<text text-anchor="middle" x="942.7684" y="-1192.1637" font-family="Times,serif" font-size="14.00" fill="#000000">~11</text>
</g>
<!-- 52 -->
<g id="node60" class="node">
<title>52</title>
<ellipse fill="none" stroke="#000000" cx="1616.5839" cy="-1054.5731" rx="27" ry="18"/>
<text text-anchor="middle" x="1616.5839" y="-1050.3731" font-family="Times,serif" font-size="14.00" fill="#000000">52</text>
</g>
<!-- 41&#45;&gt;52 -->
<g id="edge84" class="edge">
<title>41&#45;&gt;52</title>
<path fill="none" stroke="#000000" d="M1538.0092,-946.3609C1555.3327,-970.2187 1587.4386,-1014.4346 1604.7638,-1038.2947"/>
<text text-anchor="middle" x="1560.6002" y="-996.5278" font-family="Times,serif" font-size="14.00" fill="#000000">~19</text>
</g>
<!-- 54 -->
<g id="node61" class="node">
<title>54</title>
<ellipse fill="none" stroke="#000000" cx="1742.8495" cy="-899.558" rx="27" ry="18"/>
<text text-anchor="middle" x="1742.8495" y="-895.358" font-family="Times,serif" font-size="14.00" fill="#000000">54</text>
</g>
<!-- 41&#45;&gt;54 -->
<g id="edge85" class="edge">
<title>41&#45;&gt;54</title>
<path fill="none" stroke="#000000" d="M1552.7585,-926.343C1594.4539,-920.4679 1674.785,-909.1487 1716.4049,-903.2842"/>
<text text-anchor="middle" x="1623.7954" y="-919.0136" font-family="Times,serif" font-size="14.00" fill="#000000">~24</text>
</g>
<!-- 59 -->
<g id="node64" class="node">
<title>59</title>
<ellipse fill="none" stroke="#000000" cx="1546.0361" cy="-763.7045" rx="27" ry="18"/>
<text text-anchor="middle" x="1546.0361" y="-759.5045" font-family="Times,serif" font-size="14.00" fill="#000000">59</text>
</g>
<!-- 58&#45;&gt;59 -->
<g id="edge91" class="edge">
<title>58&#45;&gt;59</title>
<path fill="none" stroke="#000000" d="M1470.8669,-778.9242C1485.9826,-775.8637 1504.9516,-772.023 1520.0523,-768.9655"/>
<text text-anchor="middle" x="1484.6733" y="-778.1448" font-family="Times,serif" font-size="14.00" fill="#000000">~13</text>
</g>
</g>
</svg>
