<?xml version="1.0" encoding="UTF-8" standalone="no"?>
<!DOCTYPE svg PUBLIC "-//W3C//DTD SVG 1.1//EN"
 "http://www.w3.org/Graphics/SVG/1.1/DTD/svg11.dtd">
<!-- Generated by graphviz version 2.40.1 (20161225.0304)
 -->
<!-- Title: G Pages: 1 -->
<svg width="448pt" height="339pt"
 viewBox="0.00 0.00 447.81 338.78" xmlns="http://www.w3.org/2000/svg" xmlns:xlink="http://www.w3.org/1999/xlink">
<g id="graph0" class="graph" transform="scale(1 1) rotate(0) translate(4 334.7795)">
<title>G</title>
<polygon fill="#ffffff" stroke="transparent" points="-4,4 -4,-334.7795 443.8054,-334.7795 443.8054,4 -4,4"/>
<!-- 0 -->
<g id="node1" class="node">
<title>0</title>
<ellipse fill="#d3848e" stroke="#d3848e" cx="27" cy="-127.8685" rx="27" ry="18"/>
<text text-anchor="middle" x="27" y="-123.6685" font-family="Times,serif" font-size="14.00" fill="#000000">A</text>
</g>
<!-- 1 -->
<g id="node2" class="node">
<title>1</title>
<ellipse fill="#d3848e" stroke="#d3848e" cx="71.2198" cy="-202.3349" rx="27" ry="18"/>
<text text-anchor="middle" x="71.2198" y="-198.1349" font-family="Times,serif" font-size="14.00" fill="#000000">B</text>
</g>
<!-- 0&#45;&gt;1 -->
<g id="edge1" class="edge">
<title>0&#45;&gt;1</title>
<path fill="none" stroke="#000000" d="M37.0342,-144.7661C42.6314,-154.1919 49.7181,-166.1258 55.986,-176.681"/>
<polygon fill="#000000" stroke="#000000" points="53.11,-178.6929 61.2253,-185.5042 59.1289,-175.1188 53.11,-178.6929"/>
</g>
<!-- 2 -->
<g id="node3" class="node">
<title>2</title>
<ellipse fill="#d3848e" stroke="#d3848e" cx="87.3905" cy="-133.1408" rx="27" ry="18"/>
<text text-anchor="middle" x="87.3905" y="-128.9408" font-family="Times,serif" font-size="14.00" fill="#000000">C</text>
</g>
<!-- 1&#45;&gt;2 -->
<g id="edge2" class="edge">
<title>1&#45;&gt;2</title>
<path fill="none" stroke="#000000" d="M75.3842,-184.5157C77.0499,-177.3881 79.0086,-169.0071 80.8552,-161.1055"/>
<polygon fill="#000000" stroke="#000000" points="84.3165,-161.6743 83.1841,-151.1401 77.5001,-160.0812 84.3165,-161.6743"/>
</g>
<!-- 3 -->
<g id="node4" class="node">
<title>3</title>
<ellipse fill="#bb4168" stroke="#bb4168" cx="138.5192" cy="-254.0524" rx="27" ry="18"/>
<text text-anchor="middle" x="138.5192" y="-249.8524" font-family="Times,serif" font-size="14.00" fill="#000000">Q</text>
</g>
<!-- 1&#45;&gt;3 -->
<g id="edge3" class="edge">
<title>1&#45;&gt;3</title>
<path fill="none" stroke="#000000" d="M89.2548,-216.1942C96.3459,-221.6435 104.6257,-228.0063 112.3513,-233.9432"/>
<polygon fill="#000000" stroke="#000000" points="110.3725,-236.8367 120.4344,-240.1548 114.6379,-231.2862 110.3725,-236.8367"/>
</g>
<!-- 2&#45;&gt;0 -->
<g id="edge4" class="edge">
<title>2&#45;&gt;0</title>
<path fill="none" stroke="#000000" d="M60.3747,-130.7822C60.2412,-130.7706 60.1077,-130.7589 59.974,-130.7473"/>
<polygon fill="#000000" stroke="#000000" points="64.2137,-127.6042 53.9471,-130.2211 63.6048,-134.5777 64.2137,-127.6042"/>
</g>
<!-- 4 -->
<g id="node5" class="node">
<title>4</title>
<ellipse fill="#41afed" stroke="#41afed" cx="146.9404" cy="-80.2357" rx="27" ry="18"/>
<text text-anchor="middle" x="146.9404" y="-76.0357" font-family="Times,serif" font-size="14.00" fill="#000000">F</text>
</g>
<!-- 2&#45;&gt;4 -->
<g id="edge5" class="edge">
<title>2&#45;&gt;4</title>
<path fill="none" stroke="#000000" d="M103.6628,-118.6843C109.5709,-113.4354 116.3788,-107.3872 122.8201,-101.6646"/>
<polygon fill="#000000" stroke="#000000" points="125.5365,-103.933 130.6878,-94.6748 120.8873,-98.6999 125.5365,-103.933"/>
</g>
<!-- 14 -->
<g id="node15" class="node">
<title>14</title>
<ellipse fill="#bb4168" stroke="#bb4168" cx="222.2644" cy="-252.9348" rx="27" ry="18"/>
<text text-anchor="middle" x="222.2644" y="-248.7348" font-family="Times,serif" font-size="14.00" fill="#000000">R</text>
</g>
<!-- 3&#45;&gt;14 -->
<g id="edge6" class="edge">
<title>3&#45;&gt;14</title>
<path fill="none" stroke="#000000" d="M164.1843,-259.9842C171.3332,-260.3276 179.2274,-260.3579 186.8314,-260.0888"/>
<polygon fill="#000000" stroke="#000000" points="187.129,-263.5778 196.9232,-259.5376 186.7472,-256.5883 187.129,-263.5778"/>
</g>
<!-- 15 -->
<g id="node16" class="node">
<title>15</title>
<ellipse fill="#bb4168" stroke="#bb4168" cx="179.2535" cy="-312.7795" rx="27" ry="18"/>
<text text-anchor="middle" x="179.2535" y="-308.5795" font-family="Times,serif" font-size="14.00" fill="#000000">S</text>
</g>
<!-- 3&#45;&gt;15 -->
<g id="edge7" class="edge">
<title>3&#45;&gt;15</title>
<path fill="none" stroke="#000000" d="M149.866,-270.4112C153.5987,-275.7927 157.838,-281.9045 161.912,-287.7781"/>
<polygon fill="#000000" stroke="#000000" points="159.1092,-289.8783 167.6846,-296.1004 164.861,-285.8887 159.1092,-289.8783"/>
</g>
<!-- 7 -->
<g id="node8" class="node">
<title>7</title>
<ellipse fill="#41afed" stroke="#41afed" cx="218.4069" cy="-61.5504" rx="27" ry="18"/>
<text text-anchor="middle" x="218.4069" y="-57.3504" font-family="Times,serif" font-size="14.00" fill="#000000">G</text>
</g>
<!-- 4&#45;&gt;7 -->
<g id="edge8" class="edge">
<title>4&#45;&gt;7</title>
<path fill="none" stroke="#000000" d="M172.338,-73.5954C175.9188,-72.6592 179.651,-71.6834 183.3731,-70.7102"/>
<polygon fill="#000000" stroke="#000000" points="184.3016,-74.0852 193.091,-68.1694 182.5309,-67.3128 184.3016,-74.0852"/>
</g>
<!-- 5 -->
<g id="node6" class="node">
<title>5</title>
<ellipse fill="#e387cd" stroke="#e387cd" cx="60.8876" cy="-43.7525" rx="27" ry="18"/>
<text text-anchor="middle" x="60.8876" y="-39.5525" font-family="Times,serif" font-size="14.00" fill="#000000">D</text>
</g>
<!-- 5&#45;&gt;0 -->
<g id="edge9" class="edge">
<title>5&#45;&gt;0</title>
<path fill="none" stroke="#000000" d="M53.8661,-61.1814C49.2315,-72.6854 43.0677,-87.9852 37.8131,-101.0281"/>
<polygon fill="#000000" stroke="#000000" points="34.503,-99.8785 34.0125,-110.4619 40.9959,-102.4943 34.503,-99.8785"/>
</g>
<!-- 6 -->
<g id="node7" class="node">
<title>6</title>
<ellipse fill="#41afed" stroke="#41afed" cx="146.8624" cy="-18" rx="27" ry="18"/>
<text text-anchor="middle" x="146.8624" y="-13.8" font-family="Times,serif" font-size="14.00" fill="#000000">E</text>
</g>
<!-- 5&#45;&gt;6 -->
<g id="edge10" class="edge">
<title>5&#45;&gt;6</title>
<path fill="none" stroke="#000000" d="M85.7551,-36.3038C94.0425,-33.8214 103.4298,-31.0096 112.3161,-28.3479"/>
<polygon fill="#000000" stroke="#000000" points="113.4756,-31.6543 122.0508,-25.432 111.467,-24.9486 113.4756,-31.6543"/>
</g>
<!-- 6&#45;&gt;4 -->
<g id="edge11" class="edge">
<title>6&#45;&gt;4</title>
<path fill="none" stroke="#000000" d="M146.8849,-36.0011C146.8912,-40.9889 146.8981,-46.527 146.9049,-51.9495"/>
<polygon fill="#000000" stroke="#000000" points="143.405,-52.0638 146.9176,-62.0594 150.405,-52.055 143.405,-52.0638"/>
</g>
<!-- 7&#45;&gt;6 -->
<g id="edge12" class="edge">
<title>7&#45;&gt;6</title>
<path fill="none" stroke="#000000" d="M198.0965,-49.1871C191.0889,-44.9215 183.1012,-40.0592 175.5518,-35.4638"/>
<polygon fill="#000000" stroke="#000000" points="177.3377,-32.4535 166.9759,-30.2435 173.698,-38.4328 177.3377,-32.4535"/>
</g>
<!-- 8 -->
<g id="node9" class="node">
<title>8</title>
<ellipse fill="#505ab2" stroke="#505ab2" cx="277.5876" cy="-122.0416" rx="27" ry="18"/>
<text text-anchor="middle" x="277.5876" y="-117.8416" font-family="Times,serif" font-size="14.00" fill="#000000">H</text>
</g>
<!-- 7&#45;&gt;8 -->
<g id="edge13" class="edge">
<title>7&#45;&gt;8</title>
<path fill="none" stroke="#000000" d="M233.3407,-76.8149C240.0178,-83.6399 248.0271,-91.8265 255.3852,-99.3475"/>
<polygon fill="#000000" stroke="#000000" points="252.9577,-101.8711 262.4528,-106.5716 257.9613,-96.9759 252.9577,-101.8711"/>
</g>
<!-- 9 -->
<g id="node10" class="node">
<title>9</title>
<ellipse fill="#505ab2" stroke="#505ab2" cx="336.9122" cy="-185.3069" rx="27" ry="18"/>
<text text-anchor="middle" x="336.9122" y="-181.1069" font-family="Times,serif" font-size="14.00" fill="#000000">M</text>
</g>
<!-- 8&#45;&gt;9 -->
<g id="edge14" class="edge">
<title>8&#45;&gt;9</title>
<path fill="none" stroke="#000000" d="M291.9484,-137.3563C298.9846,-144.8599 307.6027,-154.0504 315.4046,-162.3707"/>
<polygon fill="#000000" stroke="#000000" points="312.8781,-164.7931 322.2715,-169.6936 317.9843,-160.0049 312.8781,-164.7931"/>
</g>
<!-- 10 -->
<g id="node11" class="node">
<title>10</title>
<ellipse fill="#505ab2" stroke="#505ab2" cx="286.0316" cy="-198.6397" rx="27" ry="18"/>
<text text-anchor="middle" x="286.0316" y="-194.4397" font-family="Times,serif" font-size="14.00" fill="#000000">N</text>
</g>
<!-- 8&#45;&gt;10 -->
<g id="edge15" class="edge">
<title>8&#45;&gt;10</title>
<path fill="none" stroke="#000000" d="M279.5887,-140.1943C280.5878,-149.2566 281.8187,-160.4228 282.936,-170.5588"/>
<polygon fill="#000000" stroke="#000000" points="279.4701,-171.0611 284.0449,-180.6173 286.428,-170.294 279.4701,-171.0611"/>
</g>
<!-- 9&#45;&gt;10 -->
<g id="edge16" class="edge">
<title>9&#45;&gt;10</title>
<path fill="none" stroke="#000000" d="M311.77,-191.8952C311.6699,-191.9214 311.5697,-191.9477 311.4696,-191.9739"/>
<polygon fill="#000000" stroke="#000000" points="319.9546,-186.1297 311.1691,-192.0526 321.7306,-192.9011 319.9546,-186.1297"/>
</g>
<!-- 11 -->
<g id="node12" class="node">
<title>11</title>
<ellipse fill="#505ab2" stroke="#505ab2" cx="350.0305" cy="-253.2039" rx="27" ry="18"/>
<text text-anchor="middle" x="350.0305" y="-249.0039" font-family="Times,serif" font-size="14.00" fill="#000000">J</text>
</g>
<!-- 9&#45;&gt;11 -->
<g id="edge17" class="edge">
<title>9&#45;&gt;11</title>
<path fill="none" stroke="#000000" d="M340.4276,-203.502C341.7069,-210.1233 343.1847,-217.772 344.5917,-225.0538"/>
<polygon fill="#000000" stroke="#000000" points="341.1718,-225.8041 346.5053,-234.9585 348.0447,-224.4761 341.1718,-225.8041"/>
</g>
<!-- 12 -->
<g id="node13" class="node">
<title>12</title>
<ellipse fill="#505ab2" stroke="#505ab2" cx="341.3541" cy="-124.0862" rx="27" ry="18"/>
<text text-anchor="middle" x="341.3541" y="-119.8862" font-family="Times,serif" font-size="14.00" fill="#000000">K</text>
</g>
<!-- 10&#45;&gt;12 -->
<g id="edge18" class="edge">
<title>10&#45;&gt;12</title>
<path fill="none" stroke="#000000" d="M298.0358,-182.4627C305.4303,-172.4977 315.0507,-159.5331 323.3465,-148.3535"/>
<polygon fill="#000000" stroke="#000000" points="326.225,-150.3479 329.3734,-140.2316 320.6036,-146.1765 326.225,-150.3479"/>
</g>
<!-- 11&#45;&gt;10 -->
<g id="edge19" class="edge">
<title>11&#45;&gt;10</title>
<path fill="none" stroke="#000000" d="M333.2156,-238.8678C326.3618,-233.0244 318.2983,-226.1496 310.7948,-219.7523"/>
<polygon fill="#000000" stroke="#000000" points="312.837,-216.894 302.9565,-213.0695 308.2954,-222.2208 312.837,-216.894"/>
</g>
<!-- 12&#45;&gt;8 -->
<g id="edge20" class="edge">
<title>12&#45;&gt;8</title>
<path fill="none" stroke="#000000" d="M314.3114,-123.2191C314.2138,-123.216 314.1161,-123.2128 314.0184,-123.2097"/>
<polygon fill="#000000" stroke="#000000" points="314.9831,-119.7389 304.876,-122.9166 314.7587,-126.7353 314.9831,-119.7389"/>
</g>
<!-- 13 -->
<g id="node14" class="node">
<title>13</title>
<ellipse fill="#52b1bc" stroke="#52b1bc" cx="412.8054" cy="-90.3445" rx="27" ry="18"/>
<text text-anchor="middle" x="412.8054" y="-86.1445" font-family="Times,serif" font-size="14.00" fill="#000000">L</text>
</g>
<!-- 12&#45;&gt;13 -->
<g id="edge21" class="edge">
<title>12&#45;&gt;13</title>
<path fill="none" stroke="#000000" d="M363.57,-113.5951C369.1619,-110.9544 375.2717,-108.0692 381.2257,-105.2575"/>
<polygon fill="#000000" stroke="#000000" points="382.8092,-108.3804 390.357,-100.9453 379.82,-102.0507 382.8092,-108.3804"/>
</g>
<!-- 14&#45;&gt;3 -->
<g id="edge23" class="edge">
<title>14&#45;&gt;3</title>
<path fill="none" stroke="#000000" d="M196.5993,-247.003C189.4504,-246.6596 181.5561,-246.6293 173.9522,-246.8984"/>
<polygon fill="#000000" stroke="#000000" points="173.6545,-243.4094 163.8603,-247.4496 174.0363,-250.399 173.6545,-243.4094"/>
</g>
<!-- 14&#45;&gt;10 -->
<g id="edge22" class="edge">
<title>14&#45;&gt;10</title>
<path fill="none" stroke="#000000" d="M239.0185,-238.6694C245.8474,-232.8549 253.8818,-226.0139 261.358,-219.6482"/>
<polygon fill="#000000" stroke="#000000" points="263.8231,-222.1462 269.168,-212.9983 259.285,-216.8164 263.8231,-222.1462"/>
</g>
<!-- 15&#45;&gt;14 -->
<g id="edge24" class="edge">
<title>15&#45;&gt;14</title>
<path fill="none" stroke="#000000" d="M191.0064,-296.4267C195.1788,-290.6213 199.9725,-283.9514 204.5326,-277.6066"/>
<polygon fill="#000000" stroke="#000000" points="207.5316,-279.4309 210.5257,-269.2679 201.8474,-275.3455 207.5316,-279.4309"/>
</g>
</g>
</svg>
