<?xml version="1.0" encoding="UTF-8" standalone="no"?>
<!DOCTYPE svg PUBLIC "-//W3C//DTD SVG 1.1//EN"
 "http://www.w3.org/Graphics/SVG/1.1/DTD/svg11.dtd">
<!-- Generated by graphviz version 2.40.1 (20161225.0304)
 -->
<!-- Title: G Pages: 1 -->
<svg width="298pt" height="231pt"
 viewBox="0.00 0.00 297.85 230.75" xmlns="http://www.w3.org/2000/svg" xmlns:xlink="http://www.w3.org/1999/xlink">
<g id="graph0" class="graph" transform="scale(1 1) rotate(0) translate(4 226.7481)">
<title>G</title>
<polygon fill="#ffffff" stroke="transparent" points="-4,4 -4,-226.7481 293.8478,-226.7481 293.8478,4 -4,4"/>
<!-- 0 -->
<g id="node1" class="node">
<title>0</title>
<ellipse fill="#d4668b" stroke="#d4668b" cx="27" cy="-59.7379" rx="27" ry="18"/>
<text text-anchor="middle" x="27" y="-55.5379" font-family="Times,serif" font-size="14.00" fill="#000000">A</text>
</g>
<!-- 1 -->
<g id="node2" class="node">
<title>1</title>
<ellipse fill="#d4668b" stroke="#d4668b" cx="96.9078" cy="-87.4717" rx="27" ry="18"/>
<text text-anchor="middle" x="96.9078" y="-83.2717" font-family="Times,serif" font-size="14.00" fill="#000000">B</text>
</g>
<!-- 0&#45;&gt;1 -->
<g id="edge1" class="edge">
<title>0&#45;&gt;1</title>
<path fill="none" stroke="#000000" d="M50.2783,-68.9729C54.7119,-70.7318 59.4287,-72.603 64.0945,-74.454"/>
<polygon fill="#000000" stroke="#000000" points="62.9069,-77.7482 73.4928,-78.1825 65.4882,-71.2415 62.9069,-77.7482"/>
</g>
<!-- 2 -->
<g id="node3" class="node">
<title>2</title>
<ellipse fill="#d4668b" stroke="#d4668b" cx="88.796" cy="-18" rx="27" ry="18"/>
<text text-anchor="middle" x="88.796" y="-13.8" font-family="Times,serif" font-size="14.00" fill="#000000">E</text>
</g>
<!-- 1&#45;&gt;2 -->
<g id="edge2" class="edge">
<title>1&#45;&gt;2</title>
<path fill="none" stroke="#000000" d="M94.7765,-69.2188C93.9632,-62.2539 93.0156,-54.138 92.1176,-46.4475"/>
<polygon fill="#000000" stroke="#000000" points="95.5774,-45.8987 90.9412,-36.3722 88.6247,-46.7106 95.5774,-45.8987"/>
</g>
<!-- 3 -->
<g id="node4" class="node">
<title>3</title>
<ellipse fill="#90e3cf" stroke="#90e3cf" cx="160.0806" cy="-36.1026" rx="27" ry="18"/>
<text text-anchor="middle" x="160.0806" y="-31.9026" font-family="Times,serif" font-size="14.00" fill="#000000">F</text>
</g>
<!-- 1&#45;&gt;3 -->
<g id="edge3" class="edge">
<title>1&#45;&gt;3</title>
<path fill="none" stroke="#000000" d="M114.17,-73.4349C120.5768,-68.2252 127.9811,-62.2044 134.9478,-56.5394"/>
<polygon fill="#000000" stroke="#000000" points="137.2887,-59.147 142.8392,-50.1225 132.8724,-53.7159 137.2887,-59.147"/>
</g>
<!-- 4 -->
<g id="node5" class="node">
<title>4</title>
<ellipse fill="#539adf" stroke="#539adf" cx="148.4879" cy="-146.2074" rx="27" ry="18"/>
<text text-anchor="middle" x="148.4879" y="-142.0074" font-family="Times,serif" font-size="14.00" fill="#000000">C</text>
</g>
<!-- 1&#45;&gt;4 -->
<g id="edge4" class="edge">
<title>1&#45;&gt;4</title>
<path fill="none" stroke="#000000" d="M110.7303,-103.2118C115.9339,-109.1372 121.9726,-116.0137 127.674,-122.5061"/>
<polygon fill="#000000" stroke="#000000" points="125.3988,-125.2194 134.6272,-130.4239 130.6585,-120.6004 125.3988,-125.2194"/>
</g>
<!-- 2&#45;&gt;0 -->
<g id="edge5" class="edge">
<title>2&#45;&gt;0</title>
<path fill="none" stroke="#000000" d="M69.5821,-30.9774C64.7702,-34.2274 59.5149,-37.7769 54.3901,-41.2383"/>
<polygon fill="#000000" stroke="#000000" points="52.3177,-38.4144 45.9898,-46.912 56.2357,-44.2153 52.3177,-38.4144"/>
</g>
<!-- 2&#45;&gt;3 -->
<g id="edge6" class="edge">
<title>2&#45;&gt;3</title>
<path fill="none" stroke="#000000" d="M114.129,-24.4333C117.7006,-25.3403 121.4233,-26.2857 125.1359,-27.2285"/>
<polygon fill="#000000" stroke="#000000" points="124.2753,-30.6209 134.8292,-29.6901 125.9983,-23.8363 124.2753,-30.6209"/>
</g>
<!-- 6 -->
<g id="node7" class="node">
<title>6</title>
<ellipse fill="#90e3cf" stroke="#90e3cf" cx="213.941" cy="-93.8248" rx="27" ry="18"/>
<text text-anchor="middle" x="213.941" y="-89.6248" font-family="Times,serif" font-size="14.00" fill="#000000">G</text>
</g>
<!-- 3&#45;&gt;6 -->
<g id="edge7" class="edge">
<title>3&#45;&gt;6</title>
<path fill="none" stroke="#000000" d="M168.3314,-53.4478C173.3877,-60.0764 180.0454,-67.6323 186.7292,-74.4271"/>
<polygon fill="#000000" stroke="#000000" points="184.3095,-76.9562 193.9174,-81.4216 189.1912,-71.9393 184.3095,-76.9562"/>
</g>
<!-- 5 -->
<g id="node6" class="node">
<title>5</title>
<ellipse fill="#539adf" stroke="#539adf" cx="199.7764" cy="-204.7481" rx="27" ry="18"/>
<text text-anchor="middle" x="199.7764" y="-200.5481" font-family="Times,serif" font-size="14.00" fill="#000000">D</text>
</g>
<!-- 4&#45;&gt;5 -->
<g id="edge8" class="edge">
<title>4&#45;&gt;5</title>
<path fill="none" stroke="#000000" d="M156.0203,-163.6076C160.6875,-170.1606 166.8443,-177.6314 173.0843,-184.4147"/>
<polygon fill="#000000" stroke="#000000" points="170.9032,-187.1952 180.3634,-191.9657 175.9429,-182.337 170.9032,-187.1952"/>
</g>
<!-- 4&#45;&gt;6 -->
<g id="edge9" class="edge">
<title>4&#45;&gt;6</title>
<path fill="none" stroke="#000000" d="M166.0281,-132.1698C172.9247,-126.6505 180.9774,-120.2059 188.491,-114.1926"/>
<polygon fill="#000000" stroke="#000000" points="190.7318,-116.8822 196.3524,-107.9011 186.3579,-111.4169 190.7318,-116.8822"/>
</g>
<!-- 5&#45;&gt;4 -->
<g id="edge10" class="edge">
<title>5&#45;&gt;4</title>
<path fill="none" stroke="#000000" d="M192.244,-187.348C187.5768,-180.795 181.42,-173.3242 175.18,-166.5409"/>
<polygon fill="#000000" stroke="#000000" points="177.3611,-163.7603 167.901,-158.9899 172.3214,-168.6185 177.3611,-163.7603"/>
</g>
<!-- 7 -->
<g id="node8" class="node">
<title>7</title>
<ellipse fill="#539adf" stroke="#539adf" cx="262.8478" cy="-155.1177" rx="27" ry="18"/>
<text text-anchor="middle" x="262.8478" y="-150.9177" font-family="Times,serif" font-size="14.00" fill="#000000">H</text>
</g>
<!-- 5&#45;&gt;7 -->
<g id="edge11" class="edge">
<title>5&#45;&gt;7</title>
<path fill="none" stroke="#000000" d="M222.562,-194.7654C229.434,-190.0588 236.8912,-184.3178 243.519,-178.6558"/>
<polygon fill="#000000" stroke="#000000" points="246.2628,-180.896 251.3639,-171.61 241.5853,-175.6881 246.2628,-180.896"/>
</g>
<!-- 6&#45;&gt;3 -->
<g id="edge12" class="edge">
<title>6&#45;&gt;3</title>
<path fill="none" stroke="#000000" d="M205.6902,-76.4796C200.6339,-69.851 193.9762,-62.2951 187.2924,-55.5003"/>
<polygon fill="#000000" stroke="#000000" points="189.7121,-52.9712 180.1042,-48.5058 184.8304,-57.9881 189.7121,-52.9712"/>
</g>
<!-- 7&#45;&gt;5 -->
<g id="edge13" class="edge">
<title>7&#45;&gt;5</title>
<path fill="none" stroke="#000000" d="M240.0622,-165.1005C233.1902,-169.807 225.7329,-175.548 219.1052,-181.21"/>
<polygon fill="#000000" stroke="#000000" points="216.3614,-178.9699 211.2603,-188.2558 221.0388,-184.1778 216.3614,-178.9699"/>
</g>
<!-- 7&#45;&gt;6 -->
<g id="edge14" class="edge">
<title>7&#45;&gt;6</title>
<path fill="none" stroke="#000000" d="M249.9981,-139.0137C244.872,-132.5894 238.8604,-125.0552 233.2312,-118.0004"/>
<polygon fill="#000000" stroke="#000000" points="235.8476,-115.6677 226.8747,-110.034 230.3759,-120.0337 235.8476,-115.6677"/>
</g>
</g>
</svg>
