<?xml version="1.0" encoding="UTF-8" standalone="no"?>
<!DOCTYPE svg PUBLIC "-//W3C//DTD SVG 1.1//EN"
 "http://www.w3.org/Graphics/SVG/1.1/DTD/svg11.dtd">
<!-- Generated by graphviz version 2.40.1 (20161225.0304)
 -->
<!-- Title: G Pages: 1 -->
<svg width="1231pt" height="1076pt"
 viewBox="0.00 0.00 1231.36 1076.47" xmlns="http://www.w3.org/2000/svg" xmlns:xlink="http://www.w3.org/1999/xlink">
<g id="graph0" class="graph" transform="scale(1 1) rotate(0) translate(4 1072.4653)">
<title>G</title>
<polygon fill="#ffffff" stroke="transparent" points="-4,4 -4,-1072.4653 1227.3619,-1072.4653 1227.3619,4 -4,4"/>
<!-- 0 -->
<g id="node1" class="node">
<title>0</title>
<ellipse fill="none" stroke="#000000" cx="631.8957" cy="-697.7409" rx="27" ry="18"/>
<text text-anchor="middle" x="631.8957" y="-693.5409" font-family="Times,serif" font-size="14.00" fill="#000000">0</text>
</g>
<!-- 1 -->
<g id="node2" class="node">
<title>1</title>
<ellipse fill="none" stroke="#000000" cx="451.0338" cy="-456.4013" rx="27" ry="18"/>
<text text-anchor="middle" x="451.0338" y="-452.2013" font-family="Times,serif" font-size="14.00" fill="#000000">1</text>
</g>
<!-- 0&#45;&gt;1 -->
<g id="edge1" class="edge">
<title>0&#45;&gt;1</title>
<path fill="none" stroke="#000000" d="M619.748,-681.5312C586.7999,-637.5657 496.0147,-516.4232 463.1286,-472.5405"/>
<text text-anchor="middle" x="530.652" y="-581.2358" font-family="Times,serif" font-size="14.00" fill="#000000">~39</text>
</g>
<!-- 3 -->
<g id="node3" class="node">
<title>3</title>
<ellipse fill="none" stroke="#000000" cx="787.6367" cy="-328.0748" rx="27" ry="18"/>
<text text-anchor="middle" x="787.6367" y="-323.8748" font-family="Times,serif" font-size="14.00" fill="#000000">3</text>
</g>
<!-- 0&#45;&gt;3 -->
<g id="edge2" class="edge">
<title>0&#45;&gt;3</title>
<path fill="none" stroke="#000000" d="M639.1986,-680.407C665.2984,-618.4566 753.8068,-408.3734 780.1685,-345.8014"/>
<text text-anchor="middle" x="698.8972" y="-517.3042" font-family="Times,serif" font-size="14.00" fill="#000000">~46</text>
</g>
<!-- 4 -->
<g id="node4" class="node">
<title>4</title>
<ellipse fill="none" stroke="#000000" cx="288.8731" cy="-498.8338" rx="27" ry="18"/>
<text text-anchor="middle" x="288.8731" y="-494.6338" font-family="Times,serif" font-size="14.00" fill="#000000">4</text>
</g>
<!-- 0&#45;&gt;4 -->
<g id="edge3" class="edge">
<title>0&#45;&gt;4</title>
<path fill="none" stroke="#000000" d="M611.4654,-685.8941C550.5998,-650.6002 370.9186,-546.4092 309.6301,-510.8701"/>
<text text-anchor="middle" x="449.7614" y="-602.5821" font-family="Times,serif" font-size="14.00" fill="#000000">~42</text>
</g>
<!-- 7 -->
<g id="node5" class="node">
<title>7</title>
<ellipse fill="none" stroke="#000000" cx="814.6921" cy="-655.9751" rx="27" ry="18"/>
<text text-anchor="middle" x="814.6921" y="-651.7751" font-family="Times,serif" font-size="14.00" fill="#000000">7</text>
</g>
<!-- 0&#45;&gt;7 -->
<g id="edge4" class="edge">
<title>0&#45;&gt;7</title>
<path fill="none" stroke="#000000" d="M657.6983,-691.8455C692.5368,-683.8855 754.2499,-669.7851 789.0208,-661.8405"/>
<text text-anchor="middle" x="712.5732" y="-681.043" font-family="Times,serif" font-size="14.00" fill="#000000">~24</text>
</g>
<!-- 2 -->
<g id="node6" class="node">
<title>2</title>
<ellipse fill="none" stroke="#000000" cx="660.4975" cy="-340.0916" rx="27" ry="18"/>
<text text-anchor="middle" x="660.4975" y="-335.8916" font-family="Times,serif" font-size="14.00" fill="#000000">2</text>
</g>
<!-- 1&#45;&gt;2 -->
<g id="edge5" class="edge">
<title>1&#45;&gt;2</title>
<path fill="none" stroke="#000000" d="M471.8838,-444.8239C512.0337,-422.5296 599.6485,-373.8795 639.7319,-351.6222"/>
<text text-anchor="middle" x="545.0215" y="-402.423" font-family="Times,serif" font-size="14.00" fill="#000000">~32</text>
</g>
<!-- 6 -->
<g id="node7" class="node">
<title>6</title>
<ellipse fill="none" stroke="#000000" cx="492.7283" cy="-335.5401" rx="27" ry="18"/>
<text text-anchor="middle" x="492.7283" y="-331.3401" font-family="Times,serif" font-size="14.00" fill="#000000">6</text>
</g>
<!-- 1&#45;&gt;6 -->
<g id="edge6" class="edge">
<title>1&#45;&gt;6</title>
<path fill="none" stroke="#000000" d="M457.0965,-438.8271C465.0015,-415.9126 478.7496,-376.0605 486.6582,-353.1356"/>
<text text-anchor="middle" x="461.0911" y="-400.1813" font-family="Times,serif" font-size="14.00" fill="#000000">~16</text>
</g>
<!-- 8 -->
<g id="node8" class="node">
<title>8</title>
<ellipse fill="none" stroke="#000000" cx="326.3337" cy="-715.2375" rx="27" ry="18"/>
<text text-anchor="middle" x="326.3337" y="-711.0375" font-family="Times,serif" font-size="14.00" fill="#000000">8</text>
</g>
<!-- 1&#45;&gt;8 -->
<g id="edge7" class="edge">
<title>1&#45;&gt;8</title>
<path fill="none" stroke="#000000" d="M442.6582,-473.7862C419.9413,-520.939 357.347,-650.8641 334.6728,-697.9282"/>
<text text-anchor="middle" x="377.8792" y="-590.0572" font-family="Times,serif" font-size="14.00" fill="#000000">~33</text>
</g>
<!-- 14 -->
<g id="node9" class="node">
<title>14</title>
<ellipse fill="none" stroke="#000000" cx="258.6384" cy="-360.4954" rx="27" ry="18"/>
<text text-anchor="middle" x="258.6384" y="-356.2954" font-family="Times,serif" font-size="14.00" fill="#000000">14</text>
</g>
<!-- 1&#45;&gt;14 -->
<g id="edge8" class="edge">
<title>1&#45;&gt;14</title>
<path fill="none" stroke="#ff0000" d="M429.3376,-445.5861C392.3866,-427.1666 317.6481,-389.9108 280.5505,-371.4182"/>
<text text-anchor="middle" x="344.1577" y="-412.7022" font-family="Times,serif" font-size="14.00" fill="#000000">~24</text>
</g>
<!-- 18 -->
<g id="node10" class="node">
<title>18</title>
<ellipse fill="none" stroke="#000000" cx="556.2661" cy="-449.473" rx="27" ry="18"/>
<text text-anchor="middle" x="556.2661" y="-445.273" font-family="Times,serif" font-size="14.00" fill="#000000">18</text>
</g>
<!-- 1&#45;&gt;18 -->
<g id="edge9" class="edge">
<title>1&#45;&gt;18</title>
<path fill="none" stroke="#ff0000" d="M478.1337,-454.6171C493.8453,-453.5827 513.5621,-452.2845 529.258,-451.2512"/>
<text text-anchor="middle" x="492.9096" y="-457.1341" font-family="Times,serif" font-size="14.00" fill="#000000">~13</text>
</g>
<!-- 19 -->
<g id="node11" class="node">
<title>19</title>
<ellipse fill="none" stroke="#000000" cx="383.7698" cy="-662.7264" rx="27" ry="18"/>
<text text-anchor="middle" x="383.7698" y="-658.5264" font-family="Times,serif" font-size="14.00" fill="#000000">19</text>
</g>
<!-- 1&#45;&gt;19 -->
<g id="edge10" class="edge">
<title>1&#45;&gt;19</title>
<path fill="none" stroke="#000000" d="M445.2989,-473.9925C432.6226,-512.8756 402.3367,-605.7746 389.5857,-644.8867"/>
<text text-anchor="middle" x="406.656" y="-563.6396" font-family="Times,serif" font-size="14.00" fill="#000000">~23</text>
</g>
<!-- 5 -->
<g id="node12" class="node">
<title>5</title>
<ellipse fill="none" stroke="#000000" cx="872.5412" cy="-406.0207" rx="27" ry="18"/>
<text text-anchor="middle" x="872.5412" y="-401.8207" font-family="Times,serif" font-size="14.00" fill="#000000">5</text>
</g>
<!-- 3&#45;&gt;5 -->
<g id="edge20" class="edge">
<title>3&#45;&gt;5</title>
<path fill="none" stroke="#000000" d="M803.6066,-342.7358C818.7862,-356.6713 841.4871,-377.5117 856.6429,-391.4254"/>
<text text-anchor="middle" x="819.3385" y="-371.2806" font-family="Times,serif" font-size="14.00" fill="#000000">~21</text>
</g>
<!-- 16 -->
<g id="node14" class="node">
<title>16</title>
<ellipse fill="none" stroke="#000000" cx="849.0917" cy="-229.9768" rx="27" ry="18"/>
<text text-anchor="middle" x="849.0917" y="-225.7768" font-family="Times,serif" font-size="14.00" fill="#000000">16</text>
</g>
<!-- 3&#45;&gt;16 -->
<g id="edge21" class="edge">
<title>3&#45;&gt;16</title>
<path fill="none" stroke="#000000" d="M798.0617,-311.4338C809.3625,-293.3948 827.2948,-264.7703 838.6155,-246.6994"/>
<text text-anchor="middle" x="807.5523" y="-283.2666" font-family="Times,serif" font-size="14.00" fill="#000000">~18</text>
</g>
<!-- 20 -->
<g id="node16" class="node">
<title>20</title>
<ellipse fill="none" stroke="#000000" cx="802.4944" cy="-116.2354" rx="27" ry="18"/>
<text text-anchor="middle" x="802.4944" y="-112.0354" font-family="Times,serif" font-size="14.00" fill="#000000">20</text>
</g>
<!-- 3&#45;&gt;20 -->
<g id="edge22" class="edge">
<title>3&#45;&gt;20</title>
<path fill="none" stroke="#000000" d="M788.9035,-310.0135C791.7105,-269.9911 798.4268,-174.2309 801.2308,-134.2509"/>
<text text-anchor="middle" x="784.2808" y="-226.3322" font-family="Times,serif" font-size="14.00" fill="#000000">~34</text>
</g>
<!-- 4&#45;&gt;8 -->
<g id="edge23" class="edge">
<title>4&#45;&gt;8</title>
<path fill="none" stroke="#000000" d="M292.0026,-516.912C299.0539,-557.6468 316.1189,-656.2286 323.1868,-697.0585"/>
<text text-anchor="middle" x="296.8084" y="-611.1853" font-family="Times,serif" font-size="14.00" fill="#000000">~27</text>
</g>
<!-- 4&#45;&gt;14 -->
<g id="edge26" class="edge">
<title>4&#45;&gt;14</title>
<path fill="none" stroke="#000000" d="M284.9205,-480.7485C279.126,-454.236 268.387,-405.1001 262.592,-378.5852"/>
<text text-anchor="middle" x="262.9699" y="-433.8668" font-family="Times,serif" font-size="14.00" fill="#000000">~19</text>
</g>
<!-- 11 -->
<g id="node17" class="node">
<title>11</title>
<ellipse fill="none" stroke="#000000" cx="27" cy="-315.0747" rx="27" ry="18"/>
<text text-anchor="middle" x="27" y="-310.8747" font-family="Times,serif" font-size="14.00" fill="#000000">11</text>
</g>
<!-- 4&#45;&gt;11 -->
<g id="edge24" class="edge">
<title>4&#45;&gt;11</title>
<path fill="none" stroke="#000000" d="M270.0399,-485.6183C221.7223,-451.7133 93.7922,-361.9434 45.6626,-328.1704"/>
<text text-anchor="middle" x="147.0649" y="-411.0944" font-family="Times,serif" font-size="14.00" fill="#000000">~39</text>
</g>
<!-- 12 -->
<g id="node18" class="node">
<title>12</title>
<ellipse fill="none" stroke="#000000" cx="100.2483" cy="-544.3741" rx="27" ry="18"/>
<text text-anchor="middle" x="100.2483" y="-540.1741" font-family="Times,serif" font-size="14.00" fill="#000000">12</text>
</g>
<!-- 4&#45;&gt;12 -->
<g id="edge25" class="edge">
<title>4&#45;&gt;12</title>
<path fill="none" stroke="#000000" d="M263.4343,-504.9756C227.434,-513.6672 161.9951,-529.4664 125.8864,-538.1842"/>
<text text-anchor="middle" x="183.8741" y="-525.7799" font-family="Times,serif" font-size="14.00" fill="#000000">~22</text>
</g>
<!-- 29 -->
<g id="node19" class="node">
<title>29</title>
<ellipse fill="none" stroke="#000000" cx="74.1444" cy="-424.6169" rx="27" ry="18"/>
<text text-anchor="middle" x="74.1444" y="-420.4169" font-family="Times,serif" font-size="14.00" fill="#000000">29</text>
</g>
<!-- 4&#45;&gt;29 -->
<g id="edge27" class="edge">
<title>4&#45;&gt;29</title>
<path fill="none" stroke="#000000" d="M264.6584,-490.4644C223.3084,-476.1726 139.56,-447.2265 98.2706,-432.9556"/>
<text text-anchor="middle" x="170.6782" y="-465.91" font-family="Times,serif" font-size="14.00" fill="#000000">~30</text>
</g>
<!-- 30 -->
<g id="node20" class="node">
<title>30</title>
<ellipse fill="none" stroke="#000000" cx="240.6612" cy="-606.7857" rx="27" ry="18"/>
<text text-anchor="middle" x="240.6612" y="-602.5857" font-family="Times,serif" font-size="14.00" fill="#000000">30</text>
</g>
<!-- 4&#45;&gt;30 -->
<g id="edge28" class="edge">
<title>4&#45;&gt;30</title>
<path fill="none" stroke="#000000" d="M281.127,-516.1781C272.1302,-536.3231 257.3767,-569.3578 248.388,-589.4844"/>
<text text-anchor="middle" x="253.9712" y="-557.0313" font-family="Times,serif" font-size="14.00" fill="#000000">~17</text>
</g>
<!-- 13 -->
<g id="node13" class="node">
<title>13</title>
<ellipse fill="none" stroke="#000000" cx="796.2326" cy="-507.3668" rx="27" ry="18"/>
<text text-anchor="middle" x="796.2326" y="-503.1668" font-family="Times,serif" font-size="14.00" fill="#000000">13</text>
</g>
<!-- 7&#45;&gt;13 -->
<g id="edge32" class="edge">
<title>7&#45;&gt;13</title>
<path fill="none" stroke="#000000" d="M812.4286,-637.7528C808.8857,-609.2309 802.0688,-554.3516 798.5146,-525.7382"/>
<text text-anchor="middle" x="794.6853" y="-585.9455" font-family="Times,serif" font-size="14.00" fill="#000000">~18</text>
</g>
<!-- 23 -->
<g id="node24" class="node">
<title>23</title>
<ellipse fill="none" stroke="#000000" cx="1017.3875" cy="-844.2082" rx="27" ry="18"/>
<text text-anchor="middle" x="1017.3875" y="-840.0082" font-family="Times,serif" font-size="14.00" fill="#000000">23</text>
</g>
<!-- 7&#45;&gt;23 -->
<g id="edge33" class="edge">
<title>7&#45;&gt;23</title>
<path fill="none" stroke="#000000" d="M830.5972,-670.7454C868.4881,-705.9328 963.7401,-794.3885 1001.5563,-829.5064"/>
<text text-anchor="middle" x="905.2904" y="-754.3259" font-family="Times,serif" font-size="14.00" fill="#000000">~33</text>
</g>
<!-- 2&#45;&gt;3 -->
<g id="edge11" class="edge">
<title>2&#45;&gt;3</title>
<path fill="none" stroke="#000000" d="M687.4605,-337.5431C709.0364,-335.5039 739.1469,-332.6579 760.7126,-330.6196"/>
<text text-anchor="middle" x="713.3003" y="-338.2814" font-family="Times,serif" font-size="14.00" fill="#000000">~20</text>
</g>
<!-- 2&#45;&gt;4 -->
<g id="edge12" class="edge">
<title>2&#45;&gt;4</title>
<path fill="none" stroke="#000000" d="M637.5312,-349.9018C570.9092,-378.3599 378.1142,-460.7138 311.6862,-489.089"/>
<text text-anchor="middle" x="463.8224" y="-423.6954" font-family="Times,serif" font-size="14.00" fill="#000000">~40</text>
</g>
<!-- 2&#45;&gt;6 -->
<g id="edge14" class="edge">
<title>2&#45;&gt;6</title>
<path fill="none" stroke="#000000" d="M633.1691,-339.3502C601.8785,-338.5013 550.9357,-337.1193 519.767,-336.2737"/>
<text text-anchor="middle" x="565.6818" y="-342.0119" font-family="Times,serif" font-size="14.00" fill="#000000">~23</text>
</g>
<!-- 2&#45;&gt;18 -->
<g id="edge18" class="edge">
<title>2&#45;&gt;18</title>
<path fill="none" stroke="#ff0000" d="M646.0046,-355.3006C626.2028,-376.0808 590.8843,-413.1443 570.972,-434.0405"/>
<text text-anchor="middle" x="597.702" y="-398.8706" font-family="Times,serif" font-size="14.00" fill="#000000">~19</text>
</g>
<!-- 2&#45;&gt;5 -->
<g id="edge13" class="edge">
<title>2&#45;&gt;5</title>
<path fill="none" stroke="#ff0000" d="M685.2366,-347.7835C726.0952,-360.4874 807.2048,-385.7061 847.9597,-398.3777"/>
<text text-anchor="middle" x="755.8118" y="-377.2806" font-family="Times,serif" font-size="14.00" fill="#000000">~25</text>
</g>
<!-- 2&#45;&gt;13 -->
<g id="edge15" class="edge">
<title>2&#45;&gt;13</title>
<path fill="none" stroke="#000000" d="M673.5124,-356.1306C699.3905,-388.022 757.0491,-459.0785 783.0577,-491.1306"/>
<text text-anchor="middle" x="717.4987" y="-427.8306" font-family="Times,serif" font-size="14.00" fill="#000000">~23</text>
</g>
<!-- 2&#45;&gt;16 -->
<g id="edge16" class="edge">
<title>2&#45;&gt;16</title>
<path fill="none" stroke="#000000" d="M681.0394,-328.0978C717.3171,-306.9162 792.3154,-263.1268 828.5751,-241.9558"/>
<text text-anchor="middle" x="744.021" y="-289.2268" font-family="Times,serif" font-size="14.00" fill="#000000">~26</text>
</g>
<!-- 17 -->
<g id="node15" class="node">
<title>17</title>
<ellipse fill="none" stroke="#000000" cx="640.5347" cy="-199.1171" rx="27" ry="18"/>
<text text-anchor="middle" x="640.5347" y="-194.9171" font-family="Times,serif" font-size="14.00" fill="#000000">17</text>
</g>
<!-- 2&#45;&gt;17 -->
<g id="edge17" class="edge">
<title>2&#45;&gt;17</title>
<path fill="none" stroke="#000000" d="M657.9286,-321.9502C654.0955,-294.8813 646.9211,-244.2172 643.0937,-217.1888"/>
<text text-anchor="middle" x="639.7249" y="-273.7695" font-family="Times,serif" font-size="14.00" fill="#000000">~16</text>
</g>
<!-- 2&#45;&gt;20 -->
<g id="edge19" class="edge">
<title>2&#45;&gt;20</title>
<path fill="none" stroke="#000000" d="M671.1704,-323.266C697.5501,-281.6787 765.5854,-174.4219 791.8914,-132.9508"/>
<text text-anchor="middle" x="720.7446" y="-232.3084" font-family="Times,serif" font-size="14.00" fill="#000000">~28</text>
</g>
<!-- 9 -->
<g id="node23" class="node">
<title>9</title>
<ellipse fill="none" stroke="#000000" cx="452.0033" cy="-244.4975" rx="27" ry="18"/>
<text text-anchor="middle" x="452.0033" y="-240.2975" font-family="Times,serif" font-size="14.00" fill="#000000">9</text>
</g>
<!-- 6&#45;&gt;9 -->
<g id="edge31" class="edge">
<title>6&#45;&gt;9</title>
<path fill="none" stroke="#000000" d="M484.8761,-317.9862C477.6646,-301.8646 467.0352,-278.1021 459.8314,-261.9976"/>
<text text-anchor="middle" x="461.5675" y="-294.1919" font-family="Times,serif" font-size="14.00" fill="#000000">~12</text>
</g>
<!-- 8&#45;&gt;19 -->
<g id="edge34" class="edge">
<title>8&#45;&gt;19</title>
<path fill="none" stroke="#000000" d="M342.3328,-700.6102C350.2992,-693.327 359.9019,-684.5477 367.8564,-677.2752"/>
<text text-anchor="middle" x="344.3083" y="-676.3427" font-family="Times,serif" font-size="14.00" fill="#000000">~10</text>
</g>
<!-- 22 -->
<g id="node25" class="node">
<title>22</title>
<ellipse fill="none" stroke="#000000" cx="250.3868" cy="-850.2843" rx="27" ry="18"/>
<text text-anchor="middle" x="250.3868" y="-846.0843" font-family="Times,serif" font-size="14.00" fill="#000000">22</text>
</g>
<!-- 8&#45;&gt;22 -->
<g id="edge35" class="edge">
<title>8&#45;&gt;22</title>
<path fill="none" stroke="#000000" d="M316.7149,-732.3412C302.1062,-758.3181 274.4896,-807.4253 259.9274,-833.3194"/>
<text text-anchor="middle" x="277.5349" y="-787.0303" font-family="Times,serif" font-size="14.00" fill="#000000">~19</text>
</g>
<!-- 14&#45;&gt;29 -->
<g id="edge43" class="edge">
<title>14&#45;&gt;29</title>
<path fill="none" stroke="#000000" d="M234.519,-368.8782C199.1609,-381.167 133.6312,-403.942 98.2697,-416.232"/>
<text text-anchor="middle" x="155.608" y="-379.9551" font-family="Times,serif" font-size="14.00" fill="#000000">~25</text>
</g>
<!-- 27 -->
<g id="node28" class="node">
<title>27</title>
<ellipse fill="none" stroke="#000000" cx="163.2908" cy="-295.4825" rx="27" ry="18"/>
<text text-anchor="middle" x="163.2908" y="-291.2825" font-family="Times,serif" font-size="14.00" fill="#000000">27</text>
</g>
<!-- 14&#45;&gt;27 -->
<g id="edge42" class="edge">
<title>14&#45;&gt;27</title>
<path fill="none" stroke="#ff0000" d="M239.3433,-347.3391C222.6921,-335.9854 198.7789,-319.6801 182.2317,-308.3974"/>
<text text-anchor="middle" x="200.0012" y="-332.0682" font-family="Times,serif" font-size="14.00" fill="#000000">~14</text>
</g>
<!-- 15 -->
<g id="node29" class="node">
<title>15</title>
<ellipse fill="none" stroke="#000000" cx="352.5034" cy="-83.3845" rx="27" ry="18"/>
<text text-anchor="middle" x="352.5034" y="-79.1845" font-family="Times,serif" font-size="14.00" fill="#000000">15</text>
</g>
<!-- 14&#45;&gt;15 -->
<g id="edge41" class="edge">
<title>14&#45;&gt;15</title>
<path fill="none" stroke="#000000" d="M264.6528,-342.7393C281.6068,-292.6874 329.6464,-150.8634 346.539,-100.9927"/>
<text text-anchor="middle" x="294.8096" y="-226.066" font-family="Times,serif" font-size="14.00" fill="#000000">~31</text>
</g>
<!-- 19&#45;&gt;30 -->
<g id="edge46" class="edge">
<title>19&#45;&gt;30</title>
<path fill="none" stroke="#000000" d="M360.4584,-653.6141C333.8465,-643.2116 290.5703,-626.2951 263.9626,-615.8942"/>
<text text-anchor="middle" x="301.4242" y="-638.9541" font-family="Times,serif" font-size="14.00" fill="#000000">~23</text>
</g>
<!-- 10 -->
<g id="node21" class="node">
<title>10</title>
<ellipse fill="none" stroke="#000000" cx="1132.54" cy="-557.7589" rx="27" ry="18"/>
<text text-anchor="middle" x="1132.54" y="-553.5589" font-family="Times,serif" font-size="14.00" fill="#000000">10</text>
</g>
<!-- 5&#45;&gt;10 -->
<g id="edge29" class="edge">
<title>5&#45;&gt;10</title>
<path fill="none" stroke="#ff0000" d="M892.9429,-417.9273C941.426,-446.2226 1063.1246,-517.2473 1111.8733,-545.6976"/>
<text text-anchor="middle" x="991.6218" y="-486.0125" font-family="Times,serif" font-size="14.00" fill="#000000">~33</text>
</g>
<!-- 26 -->
<g id="node22" class="node">
<title>26</title>
<ellipse fill="none" stroke="#000000" cx="1063.9486" cy="-389.7419" rx="27" ry="18"/>
<text text-anchor="middle" x="1063.9486" y="-385.5419" font-family="Times,serif" font-size="14.00" fill="#000000">26</text>
</g>
<!-- 5&#45;&gt;26 -->
<g id="edge30" class="edge">
<title>5&#45;&gt;26</title>
<path fill="none" stroke="#000000" d="M899.5592,-403.7229C936.0389,-400.6203 1000.6592,-395.1245 1037.068,-392.028"/>
<text text-anchor="middle" x="957.5273" y="-402.0754" font-family="Times,serif" font-size="14.00" fill="#000000">~37</text>
</g>
<!-- 13&#45;&gt;26 -->
<g id="edge40" class="edge">
<title>13&#45;&gt;26</title>
<path fill="none" stroke="#000000" d="M819.0579,-497.3382C869.637,-475.1155 990.6557,-421.9442 1041.1811,-399.7451"/>
<text text-anchor="middle" x="919.3332" y="-452.7417" font-family="Times,serif" font-size="14.00" fill="#000000">~29</text>
</g>
<!-- 24 -->
<g id="node31" class="node">
<title>24</title>
<ellipse fill="none" stroke="#000000" cx="585.9943" cy="-78.6779" rx="27" ry="18"/>
<text text-anchor="middle" x="585.9943" y="-74.4779" font-family="Times,serif" font-size="14.00" fill="#000000">24</text>
</g>
<!-- 17&#45;&gt;24 -->
<g id="edge45" class="edge">
<title>17&#45;&gt;24</title>
<path fill="none" stroke="#000000" d="M632.7204,-181.8611C622.4112,-159.0957 604.3615,-119.2373 593.9715,-96.2936"/>
<text text-anchor="middle" x="602.5596" y="-143.2773" font-family="Times,serif" font-size="14.00" fill="#000000">~15</text>
</g>
<!-- 11&#45;&gt;12 -->
<g id="edge38" class="edge">
<title>11&#45;&gt;12</title>
<path fill="none" stroke="#000000" d="M32.626,-332.6867C46.2605,-375.3687 80.9489,-483.9584 94.6031,-526.7021"/>
<text text-anchor="middle" x="52.8283" y="-433.8944" font-family="Times,serif" font-size="14.00" fill="#000000">~29</text>
</g>
<!-- 11&#45;&gt;27 -->
<g id="edge39" class="edge">
<title>11&#45;&gt;27</title>
<path fill="none" stroke="#ff0000" d="M53.6018,-311.2506C77.6166,-307.7984 112.7621,-302.7461 136.7561,-299.2969"/>
<text text-anchor="middle" x="84.3926" y="-309.4738" font-family="Times,serif" font-size="14.00" fill="#000000">~18</text>
</g>
<!-- 28 -->
<g id="node27" class="node">
<title>28</title>
<ellipse fill="none" stroke="#000000" cx="1196.3619" cy="-803.6479" rx="27" ry="18"/>
<text text-anchor="middle" x="1196.3619" y="-799.4479" font-family="Times,serif" font-size="14.00" fill="#000000">28</text>
</g>
<!-- 10&#45;&gt;28 -->
<g id="edge37" class="edge">
<title>10&#45;&gt;28</title>
<path fill="none" stroke="#ff0000" d="M1137.2329,-575.8397C1149.0643,-621.423 1180.0024,-740.6194 1191.7481,-785.8722"/>
<text text-anchor="middle" x="1153.7042" y="-685.056" font-family="Times,serif" font-size="14.00" fill="#000000">~31</text>
</g>
<!-- 25 -->
<g id="node26" class="node">
<title>25</title>
<ellipse fill="none" stroke="#000000" cx="372.0875" cy="-18" rx="27" ry="18"/>
<text text-anchor="middle" x="372.0875" y="-13.8" font-family="Times,serif" font-size="14.00" fill="#000000">25</text>
</g>
<!-- 9&#45;&gt;25 -->
<g id="edge36" class="edge">
<title>9&#45;&gt;25</title>
<path fill="none" stroke="#000000" d="M445.7325,-226.7247C430.7934,-184.3843 393.2389,-77.9472 378.3292,-35.6903"/>
<text text-anchor="middle" x="401.2446" y="-135.4075" font-family="Times,serif" font-size="14.00" fill="#000000">~23</text>
</g>
<!-- 23&#45;&gt;28 -->
<g id="edge49" class="edge">
<title>23&#45;&gt;28</title>
<path fill="none" stroke="#000000" d="M1043.0302,-838.3969C1077.0532,-830.6864 1136.7677,-817.1535 1170.7668,-809.4484"/>
<text text-anchor="middle" x="1096.1122" y="-828.1226" font-family="Times,serif" font-size="14.00" fill="#000000">~23</text>
</g>
<!-- 31 -->
<g id="node32" class="node">
<title>31</title>
<ellipse fill="none" stroke="#000000" cx="109.7901" cy="-1050.4653" rx="27" ry="18"/>
<text text-anchor="middle" x="109.7901" y="-1046.2653" font-family="Times,serif" font-size="14.00" fill="#000000">31</text>
</g>
<!-- 22&#45;&gt;31 -->
<g id="edge48" class="edge">
<title>22&#45;&gt;31</title>
<path fill="none" stroke="#000000" d="M238.8812,-866.6659C212.4511,-904.2969 147.6505,-996.5598 121.2575,-1034.138"/>
<text text-anchor="middle" x="169.2831" y="-954.602" font-family="Times,serif" font-size="14.00" fill="#000000">~31</text>
</g>
<!-- 21 -->
<g id="node30" class="node">
<title>21</title>
<ellipse fill="none" stroke="#000000" cx="495.7069" cy="-38.3992" rx="27" ry="18"/>
<text text-anchor="middle" x="495.7069" y="-34.1992" font-family="Times,serif" font-size="14.00" fill="#000000">21</text>
</g>
<!-- 15&#45;&gt;21 -->
<g id="edge44" class="edge">
<title>15&#45;&gt;21</title>
<path fill="none" stroke="#000000" d="M377.1209,-75.6513C403.3507,-67.4116 444.6413,-54.4407 470.9314,-46.1821"/>
<text text-anchor="middle" x="413.2398" y="-65.1167" font-family="Times,serif" font-size="14.00" fill="#000000">~16</text>
</g>
<!-- 21&#45;&gt;24 -->
<g id="edge47" class="edge">
<title>21&#45;&gt;24</title>
<path fill="none" stroke="#000000" d="M518.4902,-48.5632C532.2816,-54.7158 549.7979,-62.5301 563.531,-68.6567"/>
<text text-anchor="middle" x="530.2243" y="-62.81" font-family="Times,serif" font-size="14.00" fill="#000000">~12</text>
</g>
</g>
</svg>
