<?xml version="1.0" encoding="UTF-8" standalone="no"?>
<!DOCTYPE svg PUBLIC "-//W3C//DTD SVG 1.1//EN"
 "http://www.w3.org/Graphics/SVG/1.1/DTD/svg11.dtd">
<!-- Generated by graphviz version 2.40.1 (20161225.0304)
 -->
<!-- Title: G Pages: 1 -->
<svg width="838pt" height="1100pt"
 viewBox="0.00 0.00 837.52 1099.99" xmlns="http://www.w3.org/2000/svg" xmlns:xlink="http://www.w3.org/1999/xlink">
<g id="graph0" class="graph" transform="scale(1 1) rotate(0) translate(4 1095.9933)">
<title>G</title>
<polygon fill="#ffffff" stroke="transparent" points="-4,4 -4,-1095.9933 833.516,-1095.9933 833.516,4 -4,4"/>
<!-- 0 -->
<g id="node1" class="node">
<title>0</title>
<ellipse fill="none" stroke="#000000" cx="287.0101" cy="-754.5734" rx="27" ry="18"/>
<text text-anchor="middle" x="287.0101" y="-750.3734" font-family="Times,serif" font-size="14.00" fill="#000000">0</text>
</g>
<!-- 1 -->
<g id="node2" class="node">
<title>1</title>
<ellipse fill="none" stroke="#000000" cx="503.9507" cy="-402.654" rx="27" ry="18"/>
<text text-anchor="middle" x="503.9507" y="-398.454" font-family="Times,serif" font-size="14.00" fill="#000000">1</text>
</g>
<!-- 0&#45;&gt;1 -->
<g id="edge1" class="edge">
<title>0&#45;&gt;1</title>
<path fill="none" stroke="#000000" d="M297.4736,-737.5996C334.2065,-678.0117 457.0238,-478.7784 493.5922,-419.4574"/>
<text text-anchor="middle" x="384.7466" y="-582.7285" font-family="Times,serif" font-size="14.00" fill="#000000">~45</text>
</g>
<!-- 2 -->
<g id="node3" class="node">
<title>2</title>
<ellipse fill="none" stroke="#000000" cx="408.5476" cy="-368.0694" rx="27" ry="18"/>
<text text-anchor="middle" x="408.5476" y="-363.8694" font-family="Times,serif" font-size="14.00" fill="#000000">2</text>
</g>
<!-- 0&#45;&gt;2 -->
<g id="edge2" class="edge">
<title>0&#45;&gt;2</title>
<path fill="none" stroke="#ff0000" d="M292.6283,-736.7066C312.983,-671.9763 382.731,-450.1693 402.989,-385.7466"/>
<text text-anchor="middle" x="337.0223" y="-565.4266" font-family="Times,serif" font-size="14.00" fill="#000000">~48</text>
</g>
<!-- 3 -->
<g id="node4" class="node">
<title>3</title>
<ellipse fill="none" stroke="#000000" cx="84.5008" cy="-841.0243" rx="27" ry="18"/>
<text text-anchor="middle" x="84.5008" y="-836.8243" font-family="Times,serif" font-size="14.00" fill="#000000">3</text>
</g>
<!-- 0&#45;&gt;3 -->
<g id="edge3" class="edge">
<title>0&#45;&gt;3</title>
<path fill="none" stroke="#000000" d="M264.1733,-764.3223C225.1764,-780.9701 146.1939,-814.6876 107.2541,-831.311"/>
<text text-anchor="middle" x="174.9274" y="-802.0167" font-family="Times,serif" font-size="14.00" fill="#000000">~26</text>
</g>
<!-- 8 -->
<g id="node5" class="node">
<title>8</title>
<ellipse fill="none" stroke="#000000" cx="374.9506" cy="-998.71" rx="27" ry="18"/>
<text text-anchor="middle" x="374.9506" y="-994.51" font-family="Times,serif" font-size="14.00" fill="#000000">8</text>
</g>
<!-- 0&#45;&gt;8 -->
<g id="edge4" class="edge">
<title>0&#45;&gt;8</title>
<path fill="none" stroke="#ff0000" d="M293.3345,-772.1311C309.5209,-817.0668 352.3125,-935.8631 368.5653,-980.9834"/>
<text text-anchor="middle" x="320.1636" y="-880.7572" font-family="Times,serif" font-size="14.00" fill="#000000">~30</text>
</g>
<!-- 10 -->
<g id="node6" class="node">
<title>10</title>
<ellipse fill="none" stroke="#000000" cx="27" cy="-599.3708" rx="27" ry="18"/>
<text text-anchor="middle" x="27" y="-595.1708" font-family="Times,serif" font-size="14.00" fill="#000000">10</text>
</g>
<!-- 0&#45;&gt;10 -->
<g id="edge5" class="edge">
<title>0&#45;&gt;10</title>
<path fill="none" stroke="#000000" d="M266.6075,-742.3949C218.0025,-713.3821 95.8169,-640.4483 47.3078,-611.4928"/>
<text text-anchor="middle" x="146.1713" y="-681.1438" font-family="Times,serif" font-size="14.00" fill="#000000">~35</text>
</g>
<!-- 1&#45;&gt;2 -->
<g id="edge6" class="edge">
<title>1&#45;&gt;2</title>
<path fill="none" stroke="#000000" d="M479.8765,-393.9268C465.3037,-388.644 446.795,-381.9344 432.2837,-376.6739"/>
<text text-anchor="middle" x="461.4732" y="-372.7004" font-family="Times,serif" font-size="14.00" fill="#000000">~13</text>
</g>
<!-- 4 -->
<g id="node7" class="node">
<title>4</title>
<ellipse fill="none" stroke="#000000" cx="610.389" cy="-229.9377" rx="27" ry="18"/>
<text text-anchor="middle" x="610.389" y="-225.7377" font-family="Times,serif" font-size="14.00" fill="#000000">4</text>
</g>
<!-- 1&#45;&gt;4 -->
<g id="edge7" class="edge">
<title>1&#45;&gt;4</title>
<path fill="none" stroke="#000000" d="M514.3503,-385.7787C534.7511,-352.6745 579.7957,-279.5812 600.104,-246.6272"/>
<text text-anchor="middle" x="546.4408" y="-320.403" font-family="Times,serif" font-size="14.00" fill="#000000">~23</text>
</g>
<!-- 5 -->
<g id="node8" class="node">
<title>5</title>
<ellipse fill="none" stroke="#000000" cx="374.066" cy="-108.2366" rx="27" ry="18"/>
<text text-anchor="middle" x="374.066" y="-104.0366" font-family="Times,serif" font-size="14.00" fill="#000000">5</text>
</g>
<!-- 1&#45;&gt;5 -->
<g id="edge8" class="edge">
<title>1&#45;&gt;5</title>
<path fill="none" stroke="#000000" d="M496.2148,-385.1185C473.1136,-332.7536 404.8096,-177.925 381.7613,-125.6801"/>
<text text-anchor="middle" x="428.2018" y="-259.5993" font-family="Times,serif" font-size="14.00" fill="#000000">~40</text>
</g>
<!-- 6 -->
<g id="node9" class="node">
<title>6</title>
<ellipse fill="none" stroke="#000000" cx="591.9014" cy="-474.3824" rx="27" ry="18"/>
<text text-anchor="middle" x="591.9014" y="-470.1824" font-family="Times,serif" font-size="14.00" fill="#000000">6</text>
</g>
<!-- 1&#45;&gt;6 -->
<g id="edge9" class="edge">
<title>1&#45;&gt;6</title>
<path fill="none" stroke="#000000" d="M521.3269,-416.8252C536.7459,-429.4002 559.1533,-447.6745 574.5613,-460.2406"/>
<text text-anchor="middle" x="537.1578" y="-442.7329" font-family="Times,serif" font-size="14.00" fill="#000000">~14</text>
</g>
<!-- 9 -->
<g id="node10" class="node">
<title>9</title>
<ellipse fill="none" stroke="#000000" cx="650.0066" cy="-388.4398" rx="27" ry="18"/>
<text text-anchor="middle" x="650.0066" y="-384.2398" font-family="Times,serif" font-size="14.00" fill="#000000">9</text>
</g>
<!-- 1&#45;&gt;9 -->
<g id="edge10" class="edge">
<title>1&#45;&gt;9</title>
<path fill="none" stroke="#000000" d="M530.7396,-400.0469C556.9281,-397.4982 596.5937,-393.6379 622.8929,-391.0785"/>
<text text-anchor="middle" x="566.03" y="-399.7627" font-family="Times,serif" font-size="14.00" fill="#000000">~20</text>
</g>
<!-- 2&#45;&gt;4 -->
<g id="edge11" class="edge">
<title>2&#45;&gt;4</title>
<path fill="none" stroke="#000000" d="M427.5364,-355.0743C466.0057,-328.7475 552.7537,-269.3809 591.3037,-242.9989"/>
<text text-anchor="middle" x="498.6337" y="-303.2366" font-family="Times,serif" font-size="14.00" fill="#000000">~35</text>
</g>
<!-- 2&#45;&gt;5 -->
<g id="edge12" class="edge">
<title>2&#45;&gt;5</title>
<path fill="none" stroke="#ff0000" d="M406.1229,-349.7984C399.7918,-302.0909 382.8161,-174.1722 376.488,-126.4873"/>
<text text-anchor="middle" x="380.5192" y="-242.3429" font-family="Times,serif" font-size="14.00" fill="#000000">~29</text>
</g>
<!-- 7 -->
<g id="node11" class="node">
<title>7</title>
<ellipse fill="none" stroke="#000000" cx="236.8747" cy="-363.3144" rx="27" ry="18"/>
<text text-anchor="middle" x="236.8747" y="-359.1144" font-family="Times,serif" font-size="14.00" fill="#000000">7</text>
</g>
<!-- 2&#45;&gt;7 -->
<g id="edge13" class="edge">
<title>2&#45;&gt;7</title>
<path fill="none" stroke="#000000" d="M381.3455,-367.3159C349.2002,-366.4256 296.0393,-364.9531 263.9495,-364.0643"/>
<text text-anchor="middle" x="311.8612" y="-369.8901" font-family="Times,serif" font-size="14.00" fill="#000000">~22</text>
</g>
<!-- 12 -->
<g id="node12" class="node">
<title>12</title>
<ellipse fill="none" stroke="#000000" cx="274.1913" cy="-305.1974" rx="27" ry="18"/>
<text text-anchor="middle" x="274.1913" y="-300.9974" font-family="Times,serif" font-size="14.00" fill="#000000">12</text>
</g>
<!-- 2&#45;&gt;12 -->
<g id="edge14" class="edge">
<title>2&#45;&gt;12</title>
<path fill="none" stroke="#000000" d="M386.3614,-357.6873C361.4673,-346.0382 321.318,-327.2503 296.4105,-315.5949"/>
<text text-anchor="middle" x="330.5997" y="-340.8411" font-family="Times,serif" font-size="14.00" fill="#000000">~20</text>
</g>
<!-- 11 -->
<g id="node15" class="node">
<title>11</title>
<ellipse fill="none" stroke="#000000" cx="314.2377" cy="-1063.3019" rx="27" ry="18"/>
<text text-anchor="middle" x="314.2377" y="-1059.1019" font-family="Times,serif" font-size="14.00" fill="#000000">11</text>
</g>
<!-- 8&#45;&gt;11 -->
<g id="edge20" class="edge">
<title>8&#45;&gt;11</title>
<path fill="none" stroke="#000000" d="M360.5625,-1014.0174C351.0246,-1024.1647 338.5467,-1037.4399 328.9443,-1047.6557"/>
<text text-anchor="middle" x="333.9671" y="-1018.2366" font-family="Times,serif" font-size="14.00" fill="#000000">~11</text>
</g>
<!-- 14 -->
<g id="node16" class="node">
<title>14</title>
<ellipse fill="none" stroke="#000000" cx="478.7066" cy="-1073.9933" rx="27" ry="18"/>
<text text-anchor="middle" x="478.7066" y="-1069.7933" font-family="Times,serif" font-size="14.00" fill="#000000">14</text>
</g>
<!-- 8&#45;&gt;14 -->
<g id="edge21" class="edge">
<title>8&#45;&gt;14</title>
<path fill="none" stroke="#ff0000" d="M393.5001,-1012.1692C412.3857,-1025.8722 441.4903,-1046.9899 460.3177,-1060.6507"/>
<text text-anchor="middle" x="416.1226" y="-1040.6099" font-family="Times,serif" font-size="14.00" fill="#000000">~16</text>
</g>
<!-- 15 -->
<g id="node13" class="node">
<title>15</title>
<ellipse fill="none" stroke="#000000" cx="218.682" cy="-18" rx="27" ry="18"/>
<text text-anchor="middle" x="218.682" y="-13.8" font-family="Times,serif" font-size="14.00" fill="#000000">15</text>
</g>
<!-- 5&#45;&gt;15 -->
<g id="edge15" class="edge">
<title>5&#45;&gt;15</title>
<path fill="none" stroke="#ff0000" d="M353.4322,-96.2539C323.7128,-78.9949 269.1679,-47.3188 239.4011,-30.0323"/>
<text text-anchor="middle" x="285.6303" y="-67.3431" font-family="Times,serif" font-size="14.00" fill="#000000">~23</text>
</g>
<!-- 6&#45;&gt;9 -->
<g id="edge16" class="edge">
<title>6&#45;&gt;9</title>
<path fill="none" stroke="#000000" d="M603.1047,-457.8118C613.3938,-442.5933 628.5595,-420.1619 638.8377,-404.9595"/>
<text text-anchor="middle" x="610.1849" y="-435.5856" font-family="Times,serif" font-size="14.00" fill="#000000">~16</text>
</g>
<!-- 13 -->
<g id="node14" class="node">
<title>13</title>
<ellipse fill="none" stroke="#000000" cx="802.516" cy="-505.1268" rx="27" ry="18"/>
<text text-anchor="middle" x="802.516" y="-500.9268" font-family="Times,serif" font-size="14.00" fill="#000000">13</text>
</g>
<!-- 6&#45;&gt;13 -->
<g id="edge17" class="edge">
<title>6&#45;&gt;13</title>
<path fill="none" stroke="#000000" d="M618.5759,-478.2762C659.0886,-484.19 735.6744,-495.3696 776.0581,-501.2646"/>
<text text-anchor="middle" x="686.5307" y="-493.9704" font-family="Times,serif" font-size="14.00" fill="#000000">~24</text>
</g>
<!-- 7&#45;&gt;10 -->
<g id="edge18" class="edge">
<title>7&#45;&gt;10</title>
<path fill="none" stroke="#000000" d="M223.1042,-378.8027C185.0762,-421.5747 78.9097,-540.9855 40.8212,-583.8255"/>
<text text-anchor="middle" x="121.1764" y="-485.5141" font-family="Times,serif" font-size="14.00" fill="#000000">~42</text>
</g>
<!-- 7&#45;&gt;12 -->
<g id="edge19" class="edge">
<title>7&#45;&gt;12</title>
<path fill="none" stroke="#000000" d="M247.6682,-346.5046C252.6621,-338.7271 258.5761,-329.5166 263.5509,-321.7688"/>
<text text-anchor="middle" x="266.3959" y="-338.3367" font-family="Times,serif" font-size="14.00" fill="#000000">~10</text>
</g>
<!-- 12&#45;&gt;15 -->
<g id="edge22" class="edge">
<title>12&#45;&gt;15</title>
<path fill="none" stroke="#000000" d="M270.719,-287.232C260.7502,-235.6552 232.1201,-87.527 222.153,-35.9587"/>
<text text-anchor="middle" x="235.6497" y="-165.7953" font-family="Times,serif" font-size="14.00" fill="#000000">~38</text>
</g>
</g>
</svg>
